<svg width="25" height="26" viewBox="0 0 25 26" fill="none" xmlns="http://www.w3.org/2000/svg">
<path opacity="0.4" d="M12.4989 5.77623C12.0913 5.77623 11.7004 5.93815 11.4121 6.22637C11.1239 6.5146 10.962 6.90551 10.962 7.31312C10.962 7.72072 11.1239 8.11164 11.4121 8.39986C11.7004 8.68808 12.0913 8.85 12.4989 8.85C12.9065 8.85 13.2974 8.68808 13.5856 8.39986C13.8738 8.11164 14.0358 7.72072 14.0358 7.31312C14.0358 6.90551 13.8738 6.5146 13.5856 6.22637C13.2974 5.93815 12.9065 5.77623 12.4989 5.77623ZM8.91281 7.31312C8.91281 6.84219 9.00556 6.37587 9.18578 5.94079C9.366 5.50571 9.63014 5.11038 9.96314 4.77738C10.2961 4.44439 10.6915 4.18024 11.1265 4.00002C11.5616 3.81981 12.0279 3.72705 12.4989 3.72705C12.9698 3.72705 13.4361 3.81981 13.8712 4.00002C14.3063 4.18024 14.7016 4.44439 15.0346 4.77738C15.3676 5.11038 15.6317 5.50571 15.812 5.94079C15.9922 6.37587 16.0849 6.84219 16.0849 7.31312C16.0849 8.2642 15.7071 9.17633 15.0346 9.84885C14.3621 10.5214 13.45 10.8992 12.4989 10.8992C11.5478 10.8992 10.6357 10.5214 9.96314 9.84885C9.29062 9.17633 8.91281 8.2642 8.91281 7.31312ZM5.32674 8.85C5.055 8.85 4.79439 8.95795 4.60225 9.1501C4.4101 9.34225 4.30215 9.60285 4.30215 9.87459C4.30215 10.1463 4.4101 10.4069 4.60225 10.5991C4.79439 10.7912 5.055 10.8992 5.32674 10.8992C5.59848 10.8992 5.85909 10.7912 6.05124 10.5991C6.24338 10.4069 6.35133 10.1463 6.35133 9.87459C6.35133 9.60285 6.24338 9.34225 6.05124 9.1501C5.85909 8.95795 5.59848 8.85 5.32674 8.85ZM2.25297 9.87459C2.25297 9.05938 2.57681 8.27755 3.15326 7.70111C3.7297 7.12466 4.51153 6.80082 5.32674 6.80082C6.14196 6.80082 6.92378 7.12466 7.50023 7.70111C8.07667 8.27755 8.40051 9.05938 8.40051 9.87459C8.40051 10.6898 8.07667 11.4716 7.50023 12.0481C6.92378 12.6245 6.14196 12.9484 5.32674 12.9484C4.51153 12.9484 3.7297 12.6245 3.15326 12.0481C2.57681 11.4716 2.25297 10.6898 2.25297 9.87459ZM18.6464 9.87459C18.6464 9.60285 18.7544 9.34225 18.9465 9.1501C19.1387 8.95795 19.3993 8.85 19.671 8.85C19.9427 8.85 20.2034 8.95795 20.3955 9.1501C20.5876 9.34225 20.6956 9.60285 20.6956 9.87459C20.6956 10.1463 20.5876 10.4069 20.3955 10.5991C20.2034 10.7912 19.9427 10.8992 19.671 10.8992C19.3993 10.8992 19.1387 10.7912 18.9465 10.5991C18.7544 10.4069 18.6464 10.1463 18.6464 9.87459ZM19.671 6.80082C18.8558 6.80082 18.074 7.12466 17.4975 7.70111C16.9211 8.27755 16.5972 9.05938 16.5972 9.87459C16.5972 10.6898 16.9211 11.4716 17.4975 12.0481C18.074 12.6245 18.8558 12.9484 19.671 12.9484C20.4862 12.9484 21.268 12.6245 21.8445 12.0481C22.4209 11.4716 22.7448 10.6898 22.7448 9.87459C22.7448 9.05938 22.4209 8.27755 21.8445 7.70111C21.268 7.12466 20.4862 6.80082 19.671 6.80082ZM8.40051 15.5098C8.40051 14.0959 9.54805 12.9484 10.962 12.9484H14.0358C15.4497 12.9484 16.5972 14.0959 16.5972 15.5098V18.0713C16.5972 19.1583 16.1654 20.2007 15.3969 20.9693C14.6283 21.7379 13.5858 22.1697 12.4989 22.1697C11.4119 22.1697 10.3695 21.7379 9.60089 20.9693C8.8323 20.2007 8.40051 19.1583 8.40051 18.0713V15.5098ZM10.962 14.9975C10.8261 14.9975 10.6958 15.0515 10.5997 15.1476C10.5037 15.2437 10.4497 15.374 10.4497 15.5098V18.0713C10.4497 18.6148 10.6656 19.136 11.0499 19.5203C11.4342 19.9046 11.9554 20.1205 12.4989 20.1205C13.0423 20.1205 13.5636 19.9046 13.9479 19.5203C14.3322 19.136 14.5481 18.6148 14.5481 18.0713V15.5098C14.5481 15.374 14.4941 15.2437 14.398 15.1476C14.3019 15.0515 14.1716 14.9975 14.0358 14.9975H10.962ZM6.35133 15.5098C6.35133 14.9176 6.46199 14.3521 6.66691 13.8336L4.14436 14.5098C3.48855 14.6856 2.92936 15.1146 2.58968 15.7025C2.25001 16.2904 2.15765 16.9891 2.33289 17.6451L2.73043 19.1307C2.86977 19.6507 3.11017 20.1381 3.43789 20.5651C3.76562 20.9921 4.17426 21.3504 4.64047 21.6195C5.10669 21.8885 5.62134 22.0631 6.15503 22.1333C6.68873 22.2034 7.23102 22.1677 7.75092 22.0283L7.78576 22.018C7.31305 21.4549 6.9452 20.8115 6.69969 20.1184C6.24687 20.1208 5.80603 19.973 5.44605 19.6983C5.08606 19.4236 4.82721 19.0374 4.70994 18.6L4.3124 17.1143C4.27736 16.9831 4.29589 16.8433 4.36391 16.7257C4.43193 16.6081 4.54386 16.5224 4.6751 16.4873L6.35133 16.0365V15.5098ZM17.2448 22.0262L17.212 22.0201C17.6792 21.4607 18.0501 20.8193 18.2981 20.1184C18.7505 20.1203 19.1909 19.9724 19.5505 19.6977C19.91 19.423 20.1686 19.037 20.2858 18.6L20.6813 17.1143C20.7163 16.9831 20.6978 16.8433 20.6297 16.7257C20.5617 16.6081 20.4498 16.5224 20.3185 16.4873L18.6464 16.0385V15.5098C18.6464 14.9176 18.5358 14.3541 18.3329 13.8336L20.8493 14.5098C21.5051 14.6856 22.0643 15.1146 22.404 15.7025C22.7436 16.2904 22.836 16.9891 22.6608 17.6451L22.2632 19.1307C22.1239 19.6507 21.8835 20.1381 21.5558 20.5651C21.228 20.9921 20.8194 21.3504 20.3532 21.6195C19.887 21.8885 19.3723 22.0631 18.8386 22.1333C18.3049 22.2034 17.7626 22.1677 17.2427 22.0283" fill="#414141"/>
</svg>
