<svg width="32" height="34" viewBox="0 0 32 34" fill="none" xmlns="http://www.w3.org/2000/svg">
<path d="M2.15234 15.4489C2.15234 13.5684 3.6768 12.0439 5.55731 12.0439H26.443C28.3235 12.0439 29.848 13.5684 29.848 15.4489V28.4216C29.848 30.3021 28.3235 31.8266 26.443 31.8266H5.55731C3.6768 31.8266 2.15234 30.3021 2.15234 28.4216V15.4489Z" stroke="white" stroke-width="2.71064"/>
<circle cx="23.6835" cy="4.76758" r="2.95266" transform="rotate(21.4575 23.6835 4.76758)" fill="white"/>
<path d="M23.7617 4.94141L20.7501 12.6035" stroke="white" stroke-width="1.96844" stroke-linejoin="round"/>
<circle cx="2.95266" cy="2.95266" r="2.95266" transform="matrix(-0.930689 0.365812 0.365812 0.930689 9.89062 0.939453)" fill="white"/>
<path d="M8.14453 4.94141L11.1562 12.6035" stroke="white" stroke-width="1.96844" stroke-linejoin="round"/>
<path d="M7.77148 20.6471C7.77148 19.5778 8.63834 18.7109 9.70765 18.7109C10.777 18.7109 11.6438 19.5778 11.6438 20.6471V22.5833C11.6438 23.6526 10.777 24.5194 9.70765 24.5194C8.63834 24.5194 7.77148 23.6526 7.77148 22.5833V20.6471Z" fill="white"/>
<path d="M20.3555 20.6471C20.3555 19.5778 21.2223 18.7109 22.2916 18.7109C23.361 18.7109 24.2278 19.5778 24.2278 20.6471V22.5833C24.2278 23.6526 23.361 24.5194 22.2916 24.5194C21.2223 24.5194 20.3555 23.6526 20.3555 22.5833V20.6471Z" fill="white"/>
</svg>
