<svg width="24" height="24" viewBox="0 0 24 24" fill="none" xmlns="http://www.w3.org/2000/svg">
<path d="M11.9953 2.08936C13.9464 2.0868 15.8217 2.84391 17.2241 4.20028C18.6265 5.55666 19.4458 7.40573 19.5083 9.35575L19.5123 9.60631V13.7126L20.8954 16.8757C20.9786 17.0663 21.013 17.2746 20.9956 17.4819C20.9782 17.6891 20.9094 17.8887 20.7955 18.0628C20.6817 18.2368 20.5263 18.3797 20.3434 18.4787C20.1605 18.5777 19.9558 18.6296 19.7478 18.6297L15.0021 18.6327C15.0031 19.4154 14.6989 20.1677 14.154 20.7297C13.6091 21.2916 12.8665 21.619 12.0841 21.6421C11.3017 21.6652 10.5411 21.3822 9.96396 20.8534C9.38686 20.3246 9.03873 19.5915 8.99357 18.8101L8.98856 18.6297H4.25288C4.04513 18.6297 3.84064 18.578 3.65781 18.4793C3.47499 18.3807 3.31957 18.2381 3.20555 18.0644C3.09153 17.8908 3.02249 17.6915 3.00463 17.4845C2.98678 17.2775 3.02068 17.0693 3.10328 16.8787L4.47839 13.7136V9.60631C4.47839 5.44192 7.83796 2.08936 11.9953 2.08936ZM13.4987 18.6307L10.4919 18.6327C10.4919 19.0188 10.6404 19.3902 10.9068 19.6699C11.1731 19.9495 11.5369 20.1159 11.9226 20.1346C12.3083 20.1532 12.6864 20.0228 12.9786 19.7702C13.2707 19.5177 13.4544 19.1624 13.4917 18.778L13.4987 18.6307ZM11.9953 3.59275C8.66783 3.59275 5.98178 6.2728 5.98178 9.60631V14.0263L4.63474 17.1273H19.365L18.0089 14.0273V9.61934L18.0059 9.39383C17.9533 7.83573 17.2967 6.35918 16.175 5.27653C15.0532 4.19388 13.5543 3.59004 11.9953 3.59275Z" fill="#0E0F15" stroke="#0E0F15" stroke-width="0.835217"/>
</svg>
