<svg width="32" height="32" viewBox="0 0 32 32" fill="none" xmlns="http://www.w3.org/2000/svg">
<path d="M0 16C0 7.16344 7.16344 0 16 0C24.8366 0 32 7.16344 32 16C32 24.8366 24.8366 32 16 32C7.16344 32 0 24.8366 0 16Z" fill="#E4E6E7"/>
<path d="M13.1646 8.09777C14.8226 7.58897 16.6134 7.74562 18.1579 8.53453C19.7023 9.32344 20.8789 10.6826 21.4384 12.3241L21.5068 12.5361L22.5731 16.0269L24.5703 18.3568C24.6905 18.4972 24.7739 18.6654 24.8129 18.8461C24.8519 19.0268 24.8453 19.2143 24.7937 19.3918C24.742 19.5693 24.6471 19.7312 24.5173 19.8629C24.3875 19.9945 24.2269 20.0917 24.0502 20.1458L20.0166 21.3807C20.2207 22.0459 20.1574 22.7644 19.8401 23.3836C19.5228 24.0029 18.9765 24.4739 18.3173 24.6968C17.6582 24.9196 16.9381 24.8765 16.3102 24.5768C15.6823 24.2771 15.196 23.7444 14.9547 23.0918L14.9036 22.9397L10.8777 24.1694C10.7011 24.2234 10.5138 24.2326 10.3328 24.1961C10.1518 24.1597 9.98261 24.0789 9.84058 23.9609C9.69855 23.8428 9.58811 23.6913 9.51919 23.52C9.45026 23.3487 9.42503 23.1629 9.44575 22.9794L9.79285 19.9316L8.72631 16.44C7.64494 12.8998 9.6304 9.17732 13.1646 8.09777ZM18.738 21.7694L16.1824 22.5519C16.2826 22.8802 16.5053 23.1573 16.8044 23.3259C17.1034 23.4944 17.4559 23.5414 17.7886 23.4571C18.1214 23.3729 18.4089 23.1638 18.5917 22.8732C18.7745 22.5826 18.8384 22.2329 18.7703 21.8965L18.738 21.7694ZM13.555 9.37583C10.7263 10.2399 9.13875 13.2157 10.0044 16.0496L11.1521 19.8071L10.8122 22.793L23.3346 18.968L21.3768 16.6848L20.2322 12.9376L20.1711 12.7466C19.7218 11.4357 18.7802 10.351 17.5454 9.7219C16.3107 9.09281 14.8796 8.9687 13.555 9.37583Z" fill="#89939F" stroke="#89939F" stroke-width="0.533333"/>
</svg>
