<svg width="32" height="32" viewBox="0 0 32 32" fill="none" xmlns="http://www.w3.org/2000/svg">
<path d="M0 16C0 7.16344 7.16344 0 16 0C24.8366 0 32 7.16344 32 16C32 24.8366 24.8366 32 16 32C7.16344 32 0 24.8366 0 16Z" fill="#EEFFF7"/>
<path d="M13.6471 8.09777C15.305 7.58897 17.0959 7.74562 18.6403 8.53453C20.1847 9.32344 21.3613 10.6826 21.9208 12.3241L21.9893 12.5361L23.0555 16.0269L25.0527 18.3568C25.1729 18.4972 25.2563 18.6654 25.2953 18.8461C25.3343 19.0268 25.3277 19.2143 25.2761 19.3918C25.2245 19.5693 25.1295 19.7312 24.9997 19.8629C24.8699 19.9945 24.7094 20.0917 24.5326 20.1458L20.499 21.3807C20.7031 22.0459 20.6398 22.7644 20.3225 23.3836C20.0052 24.0029 19.4589 24.4739 18.7998 24.6968C18.1406 24.9196 17.4206 24.8765 16.7926 24.5768C16.1647 24.2771 15.6784 23.7444 15.4371 23.0918L15.386 22.9397L11.3601 24.1694C11.1835 24.2234 10.9963 24.2326 10.8152 24.1961C10.6342 24.1597 10.465 24.0789 10.323 23.9609C10.181 23.8428 10.0705 23.6913 10.0016 23.52C9.93268 23.3487 9.90745 23.1629 9.92817 22.9794L10.2753 19.9316L9.20873 16.44C8.12736 12.8998 10.1128 9.17732 13.6471 8.09777ZM19.2204 21.7694L16.6648 22.5519C16.7651 22.8802 16.9878 23.1573 17.2868 23.3259C17.5858 23.4944 17.9383 23.5414 18.271 23.4571C18.6038 23.3729 18.8914 23.1638 19.0741 22.8732C19.2569 22.5826 19.3208 22.2329 19.2527 21.8965L19.2204 21.7694ZM14.0375 9.37583C11.2087 10.2399 9.62117 13.2157 10.4868 16.0496L11.6345 19.8071L11.2946 22.793L23.817 18.968L21.8592 16.6848L20.7146 12.9376L20.6535 12.7466C20.2042 11.4357 19.2626 10.351 18.0278 9.7219C16.7931 9.09281 15.3621 8.9687 14.0375 9.37583Z" fill="#04E38F" stroke="#04E38F" stroke-width="0.533333"/>
</svg>
