<svg width="24" height="24" viewBox="0 0 24 24" fill="none" xmlns="http://www.w3.org/2000/svg">
<path d="M9.62996 15.2868L17.851 6.47831C18.045 6.27044 18.2713 6.1665 18.53 6.1665C18.7886 6.1665 19.015 6.27044 19.209 6.47831C19.403 6.68618 19.5 6.9332 19.5 7.21936C19.5 7.50553 19.403 7.7522 19.209 7.95938L10.309 17.5214C10.115 17.7292 9.88863 17.8332 9.62996 17.8332C9.37128 17.8332 9.14494 17.7292 8.95094 17.5214L4.77982 13.0522C4.58581 12.8443 4.49269 12.5976 4.50045 12.3122C4.50821 12.0267 4.60941 11.7797 4.80407 11.5711C4.99872 11.3625 5.22926 11.2586 5.4957 11.2593C5.76213 11.26 5.99235 11.3639 6.18636 11.5711L9.62996 15.2868Z" fill="#A8B2B8"/>
</svg>
