<svg width="24" height="24" viewBox="0 0 24 24" fill="none" xmlns="http://www.w3.org/2000/svg">
<path d="M9.77778 10.5556H14.2222M9.77778 12.7778H13.1111M15.3333 7.77783C15.7754 7.77783 16.1993 7.95343 16.5118 8.26599C16.8244 8.57855 17 9.00247 17 9.4445V13.8889C17 14.331 16.8244 14.7549 16.5118 15.0675C16.1993 15.38 15.7754 15.5556 15.3333 15.5556H12.5556L9.77778 17.2223V15.5556H8.66667C8.22464 15.5556 7.80072 15.38 7.48816 15.0675C7.17559 14.7549 7 14.331 7 13.8889V9.4445C7 9.00247 7.17559 8.57855 7.48816 8.26599C7.80072 7.95343 8.22464 7.77783 8.66667 7.77783H15.3333Z" stroke="#89939F" stroke-width="1.11111" stroke-linecap="round" stroke-linejoin="round"/>
</svg>
