<svg width="36" height="36" viewBox="0 0 36 36" fill="none" xmlns="http://www.w3.org/2000/svg">
<path d="M18 3C15.0333 3 12.1332 3.87973 9.66645 5.52796C7.19972 7.17618 5.27713 9.51885 4.14181 12.2597C3.0065 15.0006 2.70945 18.0166 3.28823 20.9264C3.86701 23.8361 5.29562 26.5088 7.3934 28.6066C9.49119 30.7044 12.1639 32.133 15.0736 32.7118C17.9834 33.2906 20.9994 32.9935 23.7403 31.8582C26.4811 30.7229 28.8238 28.8003 30.472 26.3335C32.1203 23.8668 33 20.9667 33 18C33 16.0302 32.612 14.0796 31.8582 12.2597C31.1044 10.4399 29.9995 8.78628 28.6066 7.3934C27.2137 6.00052 25.5601 4.89563 23.7403 4.14181C21.9204 3.38799 19.9698 3 18 3ZM18 30C15.6266 30 13.3066 29.2962 11.3332 27.9776C9.35977 26.6591 7.8217 24.7849 6.91345 22.5922C6.0052 20.3995 5.76756 17.9867 6.23058 15.6589C6.69361 13.3311 7.83649 11.1929 9.51472 9.51472C11.193 7.83649 13.3311 6.6936 15.6589 6.23058C17.9867 5.76755 20.3995 6.00519 22.5922 6.91344C24.7849 7.8217 26.6591 9.35976 27.9776 11.3332C29.2962 13.3065 30 15.6266 30 18C30 21.1826 28.7357 24.2348 26.4853 26.4853C24.2348 28.7357 21.1826 30 18 30Z" fill="#497AFA"/>
<path d="M19.0711 11.9773C18.9285 11.8408 18.7603 11.7337 18.5761 11.6623C18.2109 11.5123 17.8013 11.5123 17.4361 11.6623C17.252 11.7337 17.0838 11.8408 16.9411 11.9773L12.4411 16.4773C12.1587 16.7598 12 17.1429 12 17.5423C12 17.9418 12.1587 18.3249 12.4411 18.6073C12.7236 18.8898 13.1067 19.0485 13.5061 19.0485C13.9056 19.0485 14.2887 18.8898 14.5711 18.6073L16.5061 16.6573V23.5423C16.5061 23.9401 16.6642 24.3217 16.9455 24.603C17.2268 24.8843 17.6083 25.0423 18.0061 25.0423C18.404 25.0423 18.7855 24.8843 19.0668 24.603C19.3481 24.3217 19.5061 23.9401 19.5061 23.5423V16.6573L21.4411 18.6073C21.5806 18.7479 21.7465 18.8595 21.9293 18.9357C22.1121 19.0118 22.3081 19.051 22.5061 19.051C22.7042 19.051 22.9002 19.0118 23.083 18.9357C23.2658 18.8595 23.4317 18.7479 23.5711 18.6073C23.7117 18.4679 23.8233 18.302 23.8995 18.1192C23.9756 17.9364 24.0148 17.7403 24.0148 17.5423C24.0148 17.3443 23.9756 17.1482 23.8995 16.9655C23.8233 16.7827 23.7117 16.6168 23.5711 16.4773L19.0711 11.9773Z" fill="#497AFA"/>
</svg>
