<svg width="37" height="36" viewBox="0 0 37 36" fill="none" xmlns="http://www.w3.org/2000/svg">
<path d="M18.5 3C15.5333 3 12.6332 3.87973 10.1665 5.52796C7.69972 7.17618 5.77713 9.51885 4.64181 12.2597C3.5065 15.0006 3.20945 18.0166 3.78823 20.9263C4.36701 23.8361 5.79562 26.5088 7.8934 28.6066C9.99119 30.7044 12.6639 32.133 15.5736 32.7118C18.4834 33.2906 21.4994 32.9935 24.2403 31.8582C26.9811 30.7229 29.3238 28.8003 30.972 26.3335C32.6203 23.8668 33.5 20.9667 33.5 18C33.5 16.0302 33.112 14.0796 32.3582 12.2597C31.6044 10.4399 30.4995 8.78628 29.1066 7.3934C27.7137 6.00052 26.0601 4.89563 24.2403 4.14181C22.4204 3.38799 20.4698 3 18.5 3ZM18.5 30C16.1266 30 13.8066 29.2962 11.8332 27.9776C9.85977 26.6591 8.3217 24.7849 7.41345 22.5922C6.5052 20.3995 6.26756 17.9867 6.73058 15.6589C7.19361 13.3311 8.33649 11.1929 10.0147 9.51472C11.693 7.83649 13.8311 6.6936 16.1589 6.23058C18.4867 5.76755 20.8995 6.00519 23.0922 6.91344C25.2849 7.8217 27.1591 9.35977 28.4776 11.3332C29.7962 13.3065 30.5 15.6266 30.5 18C30.5 21.1826 29.2357 24.2348 26.9853 26.4853C24.7348 28.7357 21.6826 30 18.5 30Z" fill="#484F56"/>
<path d="M15.5 11.9248C15.913 11.9248 16.3114 12.0562 16.6074 12.293C16.9039 12.5301 17.0752 12.856 17.0752 13.2002V22.7998C17.0752 23.144 16.9039 23.4699 16.6074 23.707C16.3114 23.9438 15.913 24.0752 15.5 24.0752C15.087 24.0752 14.6886 23.9438 14.3926 23.707C14.0961 23.4699 13.9248 23.144 13.9248 22.7998V13.2002C13.9248 12.856 14.0961 12.5301 14.3926 12.293C14.6886 12.0562 15.087 11.9248 15.5 11.9248Z" fill="#484F56" stroke="#484F56" stroke-width="0.15"/>
<path d="M21.5 11.9248C21.913 11.9248 22.3114 12.0562 22.6074 12.293C22.9039 12.5301 23.0752 12.856 23.0752 13.2002V22.7998C23.0752 23.144 22.9039 23.4699 22.6074 23.707C22.3114 23.9438 21.913 24.0752 21.5 24.0752C21.087 24.0752 20.6886 23.9438 20.3926 23.707C20.0961 23.4699 19.9248 23.144 19.9248 22.7998V13.2002C19.9248 12.856 20.0961 12.5301 20.3926 12.293C20.6886 12.0562 21.087 11.9248 21.5 11.9248Z" fill="#484F56" stroke="#484F56" stroke-width="0.15"/>
</svg>
