<svg width="24" height="24" viewBox="0 0 24 24" fill="none" xmlns="http://www.w3.org/2000/svg">
<path d="M11.9983 4.30346C11.5609 4.30346 11.1414 4.47721 10.8321 4.7865C10.5228 5.09579 10.3491 5.51528 10.3491 5.95268C10.3491 6.39008 10.5228 6.80957 10.8321 7.11886C11.1414 7.42815 11.5609 7.6019 11.9983 7.6019C12.4357 7.6019 12.8552 7.42815 13.1645 7.11886C13.4738 6.80957 13.6475 6.39008 13.6475 5.95268C13.6475 5.51528 13.4738 5.09579 13.1645 4.7865C12.8552 4.47721 12.4357 4.30346 11.9983 4.30346ZM8.15011 5.95268C8.15011 5.44733 8.24964 4.94693 8.44303 4.48004C8.63642 4.01316 8.91988 3.58894 9.27721 3.2316C9.63455 2.87426 10.0588 2.59081 10.5257 2.39742C10.9925 2.20403 11.4929 2.10449 11.9983 2.10449C12.5036 2.10449 13.004 2.20403 13.4709 2.39742C13.9378 2.59081 14.362 2.87426 14.7194 3.2316C15.0767 3.58894 15.3602 4.01316 15.5536 4.48004C15.7469 4.94693 15.8465 5.44733 15.8465 5.95268C15.8465 6.97328 15.441 7.95208 14.7194 8.67376C13.9977 9.39543 13.0189 9.80087 11.9983 9.80087C10.9777 9.80087 9.99889 9.39543 9.27721 8.67376C8.55554 7.95208 8.15011 6.97328 8.15011 5.95268ZM4.30192 7.6019C4.01032 7.6019 3.73066 7.71774 3.52447 7.92393C3.31827 8.13013 3.20244 8.40978 3.20244 8.70138C3.20244 8.99299 3.31827 9.27264 3.52447 9.47884C3.73066 9.68503 4.01032 9.80087 4.30192 9.80087C4.59352 9.80087 4.87318 9.68503 5.07937 9.47884C5.28556 9.27264 5.4014 8.99299 5.4014 8.70138C5.4014 8.40978 5.28556 8.13013 5.07937 7.92393C4.87318 7.71774 4.59352 7.6019 4.30192 7.6019ZM1.00347 8.70138C1.00347 7.82658 1.35099 6.98761 1.96957 6.36903C2.58814 5.75045 3.42712 5.40294 4.30192 5.40294C5.17672 5.40294 6.01569 5.75045 6.63427 6.36903C7.25285 6.98761 7.60037 7.82658 7.60037 8.70138C7.60037 9.57619 7.25285 10.4152 6.63427 11.0337C6.01569 11.6523 5.17672 11.9998 4.30192 11.9998C3.42712 11.9998 2.58814 11.6523 1.96957 11.0337C1.35099 10.4152 1.00347 9.57619 1.00347 8.70138ZM18.5952 8.70138C18.5952 8.40978 18.711 8.13013 18.9172 7.92393C19.1234 7.71774 19.4031 7.6019 19.6947 7.6019C19.9863 7.6019 20.2659 7.71774 20.4721 7.92393C20.6783 8.13013 20.7942 8.40978 20.7942 8.70138C20.7942 8.99299 20.6783 9.27264 20.4721 9.47884C20.2659 9.68503 19.9863 9.80087 19.6947 9.80087C19.4031 9.80087 19.1234 9.68503 18.9172 9.47884C18.711 9.27264 18.5952 8.99299 18.5952 8.70138ZM19.6947 5.40294C18.8199 5.40294 17.9809 5.75045 17.3623 6.36903C16.7437 6.98761 16.3962 7.82658 16.3962 8.70138C16.3962 9.57619 16.7437 10.4152 17.3623 11.0337C17.9809 11.6523 18.8199 11.9998 19.6947 11.9998C20.5695 11.9998 21.4084 11.6523 22.027 11.0337C22.6456 10.4152 22.9931 9.57619 22.9931 8.70138C22.9931 7.82658 22.6456 6.98761 22.027 6.36903C21.4084 5.75045 20.5695 5.40294 19.6947 5.40294ZM7.60037 14.7485C7.60037 13.2313 8.83178 11.9998 10.3491 11.9998H13.6475C15.1648 11.9998 16.3962 13.2313 16.3962 14.7485V17.4972C16.3962 18.6636 15.9329 19.7823 15.1081 20.607C14.2833 21.4318 13.1647 21.8952 11.9983 21.8952C10.8319 21.8952 9.71326 21.4318 8.88849 20.607C8.06372 19.7823 7.60037 18.6636 7.60037 17.4972V14.7485ZM10.3491 14.1988C10.2033 14.1988 10.0634 14.2567 9.96034 14.3598C9.85725 14.4629 9.79933 14.6027 9.79933 14.7485V17.4972C9.79933 18.0804 10.031 18.6398 10.4434 19.0521C10.8558 19.4645 11.4151 19.6962 11.9983 19.6962C12.5815 19.6962 13.1408 19.4645 13.5532 19.0521C13.9656 18.6398 14.1973 18.0804 14.1973 17.4972V14.7485C14.1973 14.6027 14.1393 14.4629 14.0362 14.3598C13.9331 14.2567 13.7933 14.1988 13.6475 14.1988H10.3491ZM5.4014 14.7485C5.4014 14.113 5.52015 13.5061 5.74004 12.9498L3.03312 13.6754C2.32936 13.8641 1.7293 14.3244 1.3648 14.9553C1.0003 15.5862 0.90118 16.3359 1.08923 17.0399L1.51583 18.6341C1.66535 19.192 1.92332 19.7151 2.27501 20.1733C2.62669 20.6315 3.0652 21.016 3.56549 21.3047C4.06578 21.5935 4.61805 21.7808 5.19075 21.8561C5.76346 21.9314 6.34539 21.8931 6.90329 21.7434L6.94068 21.7324C6.43342 21.1281 6.03868 20.4377 5.77523 19.694C5.2893 19.6965 4.81624 19.538 4.42994 19.2432C4.04365 18.9484 3.76588 18.5339 3.64003 18.0646L3.21343 16.4703C3.17584 16.3295 3.19572 16.1795 3.26871 16.0533C3.3417 15.9271 3.46182 15.8351 3.60265 15.7974L5.4014 15.3137V14.7485ZM17.0911 21.7412L17.0559 21.7346C17.5573 21.1343 17.9553 20.4461 18.2214 19.694C18.7069 19.696 19.1795 19.5372 19.5653 19.2425C19.9512 18.9477 20.2286 18.5336 20.3544 18.0646L20.7788 16.4703C20.8164 16.3295 20.7965 16.1795 20.7235 16.0533C20.6505 15.9271 20.5304 15.8351 20.3895 15.7974L18.5952 15.3159V14.7485C18.5952 14.113 18.4764 13.5083 18.2587 12.9498L20.9591 13.6754C21.6628 13.8641 22.2629 14.3244 22.6274 14.9553C22.9919 15.5862 23.091 16.3359 22.903 17.0399L22.4764 18.6341C22.3268 19.192 22.0689 19.7151 21.7172 20.1733C21.3655 20.6315 20.927 21.016 20.4267 21.3047C19.9264 21.5935 19.3741 21.7808 18.8014 21.8561C18.2287 21.9314 17.6468 21.8931 17.0889 21.7434" fill="#0E0F15"/>
</svg>
