<svg width="36" height="36" viewBox="0 0 36 36" fill="none" xmlns="http://www.w3.org/2000/svg">
<path d="M18 3C15.0333 3 12.1332 3.87973 9.66645 5.52796C7.19972 7.17618 5.27713 9.51885 4.14181 12.2597C3.0065 15.0006 2.70945 18.0166 3.28823 20.9264C3.86701 23.8361 5.29562 26.5088 7.3934 28.6066C9.49119 30.7044 12.1639 32.133 15.0736 32.7118C17.9834 33.2906 20.9994 32.9935 23.7403 31.8582C26.4811 30.7229 28.8238 28.8003 30.472 26.3335C32.1203 23.8668 33 20.9667 33 18C33 16.0302 32.612 14.0796 31.8582 12.2597C31.1044 10.4399 29.9995 8.78628 28.6066 7.3934C27.2137 6.00052 25.5601 4.89563 23.7403 4.14181C21.9204 3.38799 19.9698 3 18 3ZM18 30C15.6266 30 13.3066 29.2962 11.3332 27.9776C9.35977 26.6591 7.8217 24.7849 6.91345 22.5922C6.0052 20.3995 5.76756 17.9867 6.23058 15.6589C6.69361 13.3311 7.83649 11.1929 9.51472 9.51472C11.193 7.83649 13.3311 6.6936 15.6589 6.23058C17.9867 5.76755 20.3995 6.00519 22.5922 6.91344C24.7849 7.8217 26.6591 9.35976 27.9776 11.3332C29.2962 13.3065 30 15.6266 30 18C30 21.1826 28.7357 24.2348 26.4853 26.4853C24.2348 28.7357 21.1826 30 18 30Z" fill="#A8B2B8"/>
<path d="M15 11.9248C15.413 11.9248 15.8114 12.0562 16.1074 12.293C16.4039 12.5301 16.5752 12.856 16.5752 13.2002V22.7998C16.5752 23.144 16.4039 23.4699 16.1074 23.707C15.8114 23.9438 15.413 24.0752 15 24.0752C14.587 24.0752 14.1886 23.9438 13.8926 23.707C13.5961 23.4699 13.4248 23.144 13.4248 22.7998V13.2002C13.4248 12.856 13.5961 12.5301 13.8926 12.293C14.1886 12.0562 14.587 11.9248 15 11.9248Z" fill="#A8B2B8" stroke="#A8B2B8" stroke-width="0.15"/>
<path d="M21 11.9248C21.413 11.9248 21.8114 12.0562 22.1074 12.293C22.4039 12.5301 22.5752 12.856 22.5752 13.2002V22.7998C22.5752 23.144 22.4039 23.4699 22.1074 23.707C21.8114 23.9438 21.413 24.0752 21 24.0752C20.587 24.0752 20.1886 23.9438 19.8926 23.707C19.5961 23.4699 19.4248 23.144 19.4248 22.7998V13.2002C19.4248 12.856 19.5961 12.5301 19.8926 12.293C20.1886 12.0562 20.587 11.9248 21 11.9248Z" fill="#A8B2B8" stroke="#A8B2B8" stroke-width="0.15"/>
</svg>
