<svg width="36" height="36" viewBox="0 0 36 36" fill="none" xmlns="http://www.w3.org/2000/svg">
<path d="M18 3C15.0333 3 12.1332 3.87973 9.66645 5.52796C7.19972 7.17618 5.27713 9.51885 4.14181 12.2597C3.0065 15.0006 2.70945 18.0166 3.28823 20.9264C3.86701 23.8361 5.29562 26.5088 7.3934 28.6066C9.49119 30.7044 12.1639 32.133 15.0736 32.7118C17.9834 33.2906 20.9994 32.9935 23.7403 31.8582C26.4811 30.7229 28.8238 28.8003 30.472 26.3335C32.1203 23.8668 33 20.9667 33 18C33 16.0302 32.612 14.0796 31.8582 12.2597C31.1044 10.4399 29.9995 8.78628 28.6066 7.3934C27.2137 6.00052 25.5601 4.89563 23.7403 4.14181C21.9204 3.38799 19.9698 3 18 3ZM18 30C15.6266 30 13.3066 29.2962 11.3332 27.9776C9.35977 26.6591 7.8217 24.7849 6.91345 22.5922C6.0052 20.3995 5.76756 17.9867 6.23058 15.6589C6.69361 13.3311 7.83649 11.1929 9.51472 9.51472C11.193 7.83649 13.3311 6.6936 15.6589 6.23058C17.9867 5.76755 20.3995 6.00519 22.5922 6.91344C24.7849 7.8217 26.6591 9.35976 27.9776 11.3332C29.2962 13.3065 30 15.6266 30 18C30 21.1826 28.7357 24.2348 26.4853 26.4853C24.2348 28.7357 21.1826 30 18 30Z" fill="#A8B2B8"/>
<path d="M16.9425 24.615C17.0852 24.7515 17.2534 24.8586 17.4375 24.93C17.8027 25.08 18.2123 25.08 18.5775 24.93C18.7617 24.8586 18.9299 24.7515 19.0725 24.615L23.5725 20.115C23.855 19.8325 24.0137 19.4494 24.0137 19.05C24.0137 18.6505 23.855 18.2674 23.5725 17.985C23.2901 17.7025 22.907 17.5438 22.5075 17.5438C22.1081 17.5438 21.725 17.7025 21.4425 17.985L19.5075 19.935L19.5075 13.05C19.5075 12.6521 19.3495 12.2706 19.0682 11.9893C18.7869 11.708 18.4054 11.55 18.0075 11.55C17.6097 11.55 17.2282 11.708 16.9469 11.9893C16.6656 12.2706 16.5075 12.6521 16.5075 13.05L16.5075 19.935L14.5725 17.985C14.4331 17.8444 14.2672 17.7328 14.0844 17.6566C13.9016 17.5805 13.7056 17.5413 13.5075 17.5413C13.3095 17.5413 13.1135 17.5805 12.9307 17.6566C12.7479 17.7328 12.582 17.8444 12.4425 17.985C12.3019 18.1244 12.1904 18.2903 12.1142 18.4731C12.038 18.6559 11.9988 18.8519 11.9988 19.05C11.9988 19.248 12.038 19.444 12.1142 19.6268C12.1904 19.8096 12.3019 19.9755 12.4425 20.115L16.9425 24.615Z" fill="#A8B2B8"/>
</svg>
