<svg width="24" height="24" viewBox="0 0 24 24" fill="none" xmlns="http://www.w3.org/2000/svg">
<path d="M6 12.6667C8.2 7.77778 14.8 7.77778 17 12.6667" stroke="#89939F" stroke-width="0.916667" stroke-linecap="round" stroke-linejoin="round"/>
<path d="M11.4993 15.111C11.2586 15.111 11.0202 15.0636 10.7978 14.9714C10.5753 14.8793 10.3732 14.7443 10.203 14.574C10.0327 14.4038 9.8977 14.2017 9.80557 13.9793C9.71344 13.7568 9.66602 13.5184 9.66602 13.2777C9.66602 13.0369 9.71344 12.7985 9.80557 12.5761C9.8977 12.3537 10.0327 12.1515 10.203 11.9813C10.3732 11.8111 10.5753 11.676 10.7978 11.5839C11.0202 11.4918 11.2586 11.4443 11.4993 11.4443C11.9856 11.4443 12.4519 11.6375 12.7957 11.9813C13.1395 12.3251 13.3327 12.7914 13.3327 13.2777C13.3327 13.7639 13.1395 14.2302 12.7957 14.574C12.4519 14.9178 11.9856 15.111 11.4993 15.111Z" fill="#89939F" stroke="#89939F" stroke-width="0.916667" stroke-linecap="round" stroke-linejoin="round"/>
</svg>
