<svg width="24" height="24" viewBox="0 0 24 24" fill="none" xmlns="http://www.w3.org/2000/svg">
<path d="M21.9 14.2H20.8V2.1C20.8 1.80826 20.6841 1.52847 20.4778 1.32218C20.2715 1.11589 19.9917 1 19.7 1H4.3C4.00826 1 3.72847 1.11589 3.52218 1.32218C3.31589 1.52847 3.2 1.80826 3.2 2.1V14.2H2.1C1.80826 14.2 1.52847 14.3159 1.32218 14.5222C1.11589 14.7285 1 15.0083 1 15.3C1 15.5917 1.11589 15.8715 1.32218 16.0778C1.52847 16.2841 1.80826 16.4 2.1 16.4H10.9V17.665L5.895 20.965C5.68967 21.0921 5.53187 21.2832 5.44595 21.5089C5.36002 21.7346 5.35076 21.9823 5.41957 22.2138C5.48839 22.4452 5.63147 22.6476 5.82673 22.7897C6.02199 22.9318 6.25858 23.0057 6.5 23C6.71626 23.0025 6.92785 22.9371 7.105 22.813L10.9 20.305V21.9C10.9 22.1917 11.0159 22.4715 11.2222 22.6778C11.4285 22.8841 11.7083 23 12 23C12.2917 23 12.5715 22.8841 12.7778 22.6778C12.9841 22.4715 13.1 22.1917 13.1 21.9V20.305L16.895 22.813C17.0721 22.9371 17.2837 23.0025 17.5 23C17.735 22.9982 17.9633 22.9212 18.1513 22.7802C18.3394 22.6392 18.4773 22.4417 18.545 22.2166C18.6126 21.9916 18.6064 21.7507 18.5272 21.5295C18.448 21.3082 18.3001 21.1181 18.105 20.987L13.1 17.687V16.4H21.9C22.1917 16.4 22.4715 16.2841 22.6778 16.0778C22.8841 15.8715 23 15.5917 23 15.3C23 15.0083 22.8841 14.7285 22.6778 14.5222C22.4715 14.3159 22.1917 14.2 21.9 14.2ZM18.6 14.2H5.4V3.2H18.6V14.2ZM8.7 12C8.88118 11.9991 9.05932 11.9534 9.2186 11.867C9.37787 11.7807 9.51335 11.6563 9.613 11.505L11.076 9.305L12.319 10.559C12.4344 10.6751 12.5743 10.764 12.7284 10.8192C12.8826 10.8744 13.0471 10.8945 13.21 10.878C13.3722 10.8602 13.5284 10.8066 13.6673 10.7209C13.8061 10.6353 13.9242 10.5199 14.013 10.383L16.213 7.083C16.3426 6.84148 16.3773 6.56028 16.3104 6.2945C16.2435 6.02871 16.0797 5.79748 15.8513 5.64608C15.6228 5.49469 15.346 5.43404 15.0752 5.47601C14.8044 5.51798 14.5589 5.65955 14.387 5.873L12.924 8.073L11.681 6.819C11.5656 6.70287 11.4257 6.61397 11.2716 6.55878C11.1174 6.50359 10.9529 6.48351 10.79 6.5C10.6278 6.51779 10.4716 6.57144 10.3327 6.65705C10.1939 6.74267 10.0758 6.8581 9.987 6.995L7.787 10.295C7.6278 10.5375 7.57084 10.8331 7.62852 11.1174C7.68621 11.4017 7.85387 11.6517 8.095 11.813C8.27215 11.9371 8.48374 12.0025 8.7 12V12Z" fill="black"/>
</svg>
