<svg width="24" height="24" viewBox="0 0 24 24" fill="none" xmlns="http://www.w3.org/2000/svg">
<path d="M7.04146 13.6167C7.11634 13.6915 7.11987 13.8118 7.04952 13.8909L5.32275 15.8336C5.26542 15.8981 5.3112 16 5.39749 16H18.6029C18.6891 16 18.735 15.8982 18.6778 15.8337L16.9999 13.9407C16.9297 13.8616 16.9334 13.7414 17.0082 13.6666L18.1489 12.5259C18.2306 12.4442 18.3644 12.4485 18.4406 12.5354L20.8011 15.2237C20.9293 15.3697 21 15.5573 21 15.7516V20C21 20.5523 20.5523 21 20 21H4C3.44772 21 3 20.5523 3 20V15.7521C3 15.5575 3.0709 15.3696 3.19943 15.2236L5.60917 12.4852C5.68545 12.3985 5.81909 12.3943 5.90074 12.4759L7.04146 13.6167Z" fill="#89939F"/>
<path fill-rule="evenodd" clip-rule="evenodd" d="M13.157 2.76904C13.7036 2.76909 14.1618 2.95418 14.5315 3.32395L17.9326 6.676C18.3023 7.04577 18.4913 7.50006 18.4997 8.03829C18.5081 8.57661 18.3266 9.03108 17.9561 9.40154L13.1325 14.2252C12.7627 14.5949 12.3085 14.7765 11.7702 14.7688C11.232 14.761 10.7773 14.5711 10.407 14.2007L7.05491 10.8006C6.68518 10.4309 6.50009 9.97254 6.5 9.42603C6.5 8.87935 6.68509 8.42035 7.05491 8.05054L11.7824 3.32395C12.1522 2.9542 12.6104 2.76904 13.157 2.76904ZM8.5188 9.28863C8.44308 9.36436 8.44351 9.48727 8.51977 9.56246L11.6696 12.6681C11.7451 12.7425 11.8665 12.7421 11.9415 12.6671L16.4442 8.16439C16.5199 8.08866 16.5195 7.96575 16.4432 7.89056L13.2934 4.78496C13.2179 4.71052 13.0965 4.71095 13.0215 4.78592L8.5188 9.28863Z" fill="#89939F"/>
</svg>
