<svg width="25" height="24" viewBox="0 0 25 24" fill="none" xmlns="http://www.w3.org/2000/svg">
<path d="M22.4 14.2H21.3V2.1C21.3 1.80826 21.1841 1.52847 20.9778 1.32218C20.7715 1.11589 20.4917 1 20.2 1H4.8C4.50826 1 4.22847 1.11589 4.02218 1.32218C3.81589 1.52847 3.7 1.80826 3.7 2.1V14.2H2.6C2.30826 14.2 2.02847 14.3159 1.82218 14.5222C1.61589 14.7285 1.5 15.0083 1.5 15.3C1.5 15.5917 1.61589 15.8715 1.82218 16.0778C2.02847 16.2841 2.30826 16.4 2.6 16.4H11.4V17.665L6.395 20.965C6.18967 21.0921 6.03187 21.2832 5.94595 21.5089C5.86002 21.7346 5.85076 21.9823 5.91957 22.2138C5.98839 22.4452 6.13147 22.6476 6.32673 22.7897C6.52199 22.9318 6.75858 23.0057 7 23C7.21626 23.0025 7.42785 22.9371 7.605 22.813L11.4 20.305V21.9C11.4 22.1917 11.5159 22.4715 11.7222 22.6778C11.9285 22.8841 12.2083 23 12.5 23C12.7917 23 13.0715 22.8841 13.2778 22.6778C13.4841 22.4715 13.6 22.1917 13.6 21.9V20.305L17.395 22.813C17.5721 22.9371 17.7837 23.0025 18 23C18.235 22.9982 18.4633 22.9212 18.6513 22.7802C18.8394 22.6392 18.9773 22.4417 19.045 22.2166C19.1126 21.9916 19.1064 21.7507 19.0272 21.5295C18.948 21.3082 18.8001 21.1181 18.605 20.987L13.6 17.687V16.4H22.4C22.6917 16.4 22.9715 16.2841 23.1778 16.0778C23.3841 15.8715 23.5 15.5917 23.5 15.3C23.5 15.0083 23.3841 14.7285 23.1778 14.5222C22.9715 14.3159 22.6917 14.2 22.4 14.2ZM19.1 14.2H5.9V3.2H19.1V14.2ZM9.2 12C9.38118 11.9991 9.55932 11.9534 9.7186 11.867C9.87787 11.7807 10.0134 11.6563 10.113 11.505L11.576 9.305L12.819 10.559C12.9344 10.6751 13.0743 10.764 13.2284 10.8192C13.3826 10.8744 13.5471 10.8945 13.71 10.878C13.8722 10.8602 14.0284 10.8066 14.1673 10.7209C14.3061 10.6353 14.4242 10.5199 14.513 10.383L16.713 7.083C16.8426 6.84148 16.8773 6.56028 16.8104 6.2945C16.7435 6.02871 16.5797 5.79748 16.3513 5.64608C16.1228 5.49469 15.846 5.43404 15.5752 5.47601C15.3044 5.51798 15.0589 5.65955 14.887 5.873L13.424 8.073L12.181 6.819C12.0656 6.70287 11.9257 6.61397 11.7716 6.55878C11.6174 6.50359 11.4529 6.48351 11.29 6.5C11.1278 6.51779 10.9716 6.57144 10.8327 6.65705C10.6939 6.74267 10.5758 6.8581 10.487 6.995L8.287 10.295C8.1278 10.5375 8.07084 10.8331 8.12852 11.1174C8.18621 11.4017 8.35387 11.6517 8.595 11.813C8.77215 11.9371 8.98374 12.0025 9.2 12Z" fill="#A8B2B8"/>
</svg>
