<svg width="24" height="24" viewBox="0 0 24 24" fill="none" xmlns="http://www.w3.org/2000/svg">
<path d="M0 12C0 5.37258 5.37258 0 12 0V0C18.6274 0 24 5.37258 24 12V12C24 18.6274 18.6274 24 12 24V24C5.37258 24 0 18.6274 0 12V12Z" fill="#FEE500"/>
<path d="M12.0012 5.979C8.48024 5.979 5.625 8.29891 5.625 11.1601C5.625 13.0222 6.83575 14.6554 8.64956 15.5686C8.51503 16.0812 8.16711 17.4236 8.09521 17.7097C8.00939 18.0673 8.22278 18.0602 8.36195 17.9648C8.47096 17.8885 10.1085 16.7441 10.8159 16.2505C11.1986 16.3101 11.5953 16.3387 11.9988 16.3387C15.5198 16.3387 18.375 14.0188 18.375 11.1577C18.3773 8.29891 15.5221 5.979 12.0012 5.979Z" fill="black" fill-opacity="0.9"/>
</svg>
