<svg width="24" height="24" viewBox="0 0 24 24" fill="none" xmlns="http://www.w3.org/2000/svg">
<path d="M10.1 9.04036H16.5C16.7387 9.04036 16.9676 8.94671 17.1364 8.78001C17.3052 8.61332 17.4 8.38722 17.4 8.15148C17.4 7.91573 17.3052 7.68964 17.1364 7.52294C16.9676 7.35624 16.7387 7.26259 16.5 7.26259H10.1C9.8613 7.26259 9.63239 7.35624 9.4636 7.52294C9.29482 7.68964 9.2 7.91573 9.2 8.15148C9.2 8.38722 9.29482 8.61332 9.4636 8.78001C9.63239 8.94671 9.8613 9.04036 10.1 9.04036ZM20.1 3.70703H6.5C6.2613 3.70703 6.03239 3.80068 5.8636 3.96738C5.69482 4.13408 5.6 4.36017 5.6 4.59592V12.6912H2.9C2.66131 12.6912 2.43239 12.7848 2.2636 12.9515C2.09482 13.1182 2 13.3443 2 13.58V18.4689C2 19.1762 2.28446 19.8545 2.79081 20.3546C3.29716 20.8547 3.98392 21.1356 4.7 21.1356H17.4C18.3548 21.1356 19.2705 20.761 19.9456 20.0942C20.6207 19.4274 21 18.523 21 17.58V4.59592C21 4.36017 20.9052 4.13408 20.7364 3.96738C20.5676 3.80068 20.3387 3.70703 20.1 3.70703ZM5.6 18.4689C5.6 18.7047 5.50518 18.9308 5.3364 19.0975C5.16761 19.2642 4.93869 19.3578 4.7 19.3578C4.4613 19.3578 4.23239 19.2642 4.0636 19.0975C3.89482 18.9308 3.8 18.7047 3.8 18.4689V14.4689H5.6V18.4689ZM19.2 17.58C19.2 18.0515 19.0104 18.5037 18.6728 18.8371C18.3352 19.1705 17.8774 19.3578 17.4 19.3578H7.238C7.34278 19.0728 7.39757 18.7722 7.4 18.4689V5.48481H19.2V17.58Z" fill="#89939F"/>
<path d="M16.2515 11.4585C16.332 11.447 16.4145 11.4518 16.4932 11.472C16.5712 11.4922 16.6441 11.5279 16.7085 11.5762C16.7739 11.6247 16.8297 11.685 16.8714 11.755C16.9131 11.825 16.941 11.9025 16.9526 11.9831C16.9642 12.0637 16.9594 12.1459 16.9391 12.2248C16.9188 12.3037 16.8834 12.3781 16.8344 12.4431L16.8333 12.4423L14.6582 15.3503C14.6097 15.4155 14.549 15.4706 14.4792 15.5123C14.4093 15.554 14.3317 15.5818 14.2512 15.5935C14.1706 15.6051 14.0883 15.6002 14.0095 15.5799C13.9306 15.5596 13.8561 15.5243 13.7911 15.4752L13.791 15.4742L12.2082 14.2873L10.7145 16.2882C10.6659 16.3536 10.6056 16.4094 10.5357 16.4511C10.4657 16.4928 10.3881 16.5197 10.3075 16.5313C10.2269 16.543 10.1448 16.5391 10.0659 16.5188C9.98702 16.4985 9.91258 16.4631 9.84757 16.4141L9.8484 16.413C9.78369 16.3646 9.72896 16.3042 9.68758 16.2348C9.64593 16.1649 9.61799 16.0873 9.60639 16.0068C9.59486 15.9263 9.59968 15.8438 9.61993 15.7651C9.64024 15.6864 9.67584 15.6126 9.72479 15.5477L11.5897 13.0553C11.6382 12.9902 11.699 12.9349 11.7687 12.8934C11.8386 12.8517 11.9163 12.8247 11.9969 12.8131C12.0775 12.8015 12.1596 12.8054 12.2385 12.8257C12.3169 12.8459 12.3901 12.8821 12.4548 12.9307L12.4558 12.9306L14.0386 14.1175L15.8444 11.7006C15.8928 11.6357 15.9539 11.5812 16.0235 11.5397C16.0934 11.498 16.171 11.4701 16.2515 11.4585Z" fill="#89939F" stroke="#89939F" stroke-width="0.5"/>
</svg>
