<svg width="24" height="24" viewBox="0 0 24 24" fill="none" xmlns="http://www.w3.org/2000/svg">
<path d="M9.95263 15.6843H17.0263C17.2901 15.6843 17.5432 15.5808 17.7297 15.3965C17.9162 15.2123 18.0211 14.9624 18.0211 14.7018C18.0211 14.4413 17.9162 14.1914 17.7297 14.0071C17.5432 13.8229 17.2901 13.7194 17.0263 13.7194H9.95263C9.68881 13.7194 9.4358 13.8229 9.24925 14.0071C9.0627 14.1914 8.95789 14.4413 8.95789 14.7018C8.95789 14.9624 9.0627 15.2123 9.24925 15.3965C9.4358 15.5808 9.68881 15.6843 9.95263 15.6843ZM21.0053 9.78955H5.97368C5.70986 9.78955 5.45685 9.89306 5.2703 10.0773C5.08375 10.2616 4.97895 10.5114 4.97895 10.772V13.7194H1.99474C1.73092 13.7194 1.4779 13.8229 1.29135 14.0071C1.1048 14.1914 1 14.4413 1 14.7018V20.1053C1 20.887 1.31441 21.6367 1.87406 22.1894C2.4337 22.7422 3.19275 23.0527 3.98421 23.0527H18.0211C19.0763 23.0527 20.0884 22.6387 20.8346 21.9017C21.5808 21.1647 22 20.1651 22 19.1229V10.772C22 10.5114 21.8952 10.2616 21.7086 10.0773C21.5221 9.89306 21.2691 9.78955 21.0053 9.78955ZM4.97895 20.1053C4.97895 20.3659 4.87414 20.6158 4.6876 20.8C4.50105 20.9843 4.24803 21.0878 3.98421 21.0878C3.72039 21.0878 3.46737 20.9843 3.28083 20.8C3.09428 20.6158 2.98947 20.3659 2.98947 20.1053V15.6843H4.97895V20.1053ZM20.0105 19.1229C20.0105 19.644 19.8009 20.1438 19.4278 20.5123C19.0547 20.8808 18.5487 21.0878 18.0211 21.0878H6.78937C6.90518 20.7727 6.96573 20.4405 6.96842 20.1053V11.7545H20.0105V19.1229Z" fill="black"/>
<path d="M8.41394 6.11948C8.23417 6.2798 8.13318 6.49724 8.13318 6.72397C8.13318 6.9507 8.23417 7.16814 8.41394 7.32846C8.59371 7.48878 8.83753 7.57884 9.09177 7.57884C9.346 7.57884 9.58982 7.48878 9.76959 7.32846C10.6684 6.52686 11.8875 6.07652 13.1587 6.07652C14.4299 6.07652 15.649 6.52686 16.5478 7.32846C16.7276 7.48878 16.9714 7.57884 17.2257 7.57884C17.4799 7.57884 17.7237 7.48878 17.9035 7.32846C18.0833 7.16814 18.1843 6.9507 18.1843 6.72397C18.1843 6.49724 18.0833 6.2798 17.9035 6.11948C16.6451 4.99724 14.9384 4.36677 13.1587 4.36677C11.3791 4.36677 9.67233 4.99724 8.41394 6.11948ZM5.70264 3.70153C5.52287 3.86185 5.42188 4.07929 5.42188 4.30601C5.42188 4.53274 5.52287 4.75018 5.70264 4.9105C5.88241 5.07082 6.12623 5.16089 6.38046 5.16089C6.6347 5.16089 6.87852 5.07082 7.05829 4.9105C8.67622 3.46762 10.8706 2.65702 13.1587 2.65702C15.4468 2.65702 17.6412 3.46762 19.2591 4.9105C19.4389 5.07082 19.6827 5.16089 19.937 5.16089C20.1912 5.16089 20.435 5.07082 20.6148 4.9105C20.7946 4.75018 20.8956 4.53274 20.8956 4.30601C20.8956 4.07929 20.7946 3.86185 20.6148 3.70153C18.6373 1.938 15.9553 0.947266 13.1587 0.947266C10.3621 0.947266 7.68011 1.938 5.70264 3.70153Z" fill="currentColor"/>
</svg>
