<svg width="25" height="24" viewBox="0 0 25 24" fill="none" xmlns="http://www.w3.org/2000/svg">
<path d="M10.4526 15.6843H17.5263C17.7901 15.6843 18.0432 15.5808 18.2297 15.3965C18.4163 15.2123 18.5211 14.9624 18.5211 14.7018C18.5211 14.4413 18.4163 14.1914 18.2297 14.0071C18.0432 13.8229 17.7901 13.7194 17.5263 13.7194H10.4526C10.1888 13.7194 9.9358 13.8229 9.74925 14.0071C9.5627 14.1914 9.45789 14.4413 9.45789 14.7018C9.45789 14.9624 9.5627 15.2123 9.74925 15.3965C9.9358 15.5808 10.1888 15.6843 10.4526 15.6843ZM21.5053 9.78955H6.47368C6.20986 9.78955 5.95685 9.89306 5.7703 10.0773C5.58375 10.2616 5.47895 10.5114 5.47895 10.772V13.7194H2.49474C2.23092 13.7194 1.9779 13.8229 1.79135 14.0071C1.6048 14.1914 1.5 14.4413 1.5 14.7018V20.1053C1.5 20.887 1.81441 21.6367 2.37406 22.1894C2.9337 22.7422 3.69275 23.0527 4.48421 23.0527H18.5211C19.5763 23.0527 20.5884 22.6387 21.3346 21.9017C22.0808 21.1647 22.5 20.1651 22.5 19.1229V10.772C22.5 10.5114 22.3952 10.2616 22.2086 10.0773C22.0221 9.89306 21.7691 9.78955 21.5053 9.78955ZM5.47895 20.1053C5.47895 20.3659 5.37414 20.6158 5.1876 20.8C5.00105 20.9843 4.74803 21.0878 4.48421 21.0878C4.22039 21.0878 3.96737 20.9843 3.78083 20.8C3.59428 20.6158 3.48947 20.3659 3.48947 20.1053V15.6843H5.47895V20.1053ZM20.5105 19.1229C20.5105 19.644 20.3009 20.1438 19.9278 20.5123C19.5547 20.8808 19.0487 21.0878 18.5211 21.0878H7.28937C7.40518 20.7727 7.46573 20.4405 7.46842 20.1053V11.7545H20.5105V19.1229Z" fill="#A8B2B8"/>
<path d="M8.91394 6.11948C8.73417 6.2798 8.63318 6.49724 8.63318 6.72397C8.63318 6.9507 8.73417 7.16814 8.91394 7.32846C9.09371 7.48878 9.33753 7.57884 9.59177 7.57884C9.846 7.57884 10.0898 7.48878 10.2696 7.32846C11.1684 6.52685 12.3875 6.07652 13.6587 6.07652C14.9299 6.07652 16.149 6.52685 17.0478 7.32846C17.2276 7.48878 17.4714 7.57884 17.7257 7.57884C17.9799 7.57884 18.2237 7.48878 18.4035 7.32846C18.5833 7.16814 18.6843 6.9507 18.6843 6.72397C18.6843 6.49724 18.5833 6.2798 18.4035 6.11948C17.1451 4.99724 15.4384 4.36677 13.6587 4.36677C11.8791 4.36677 10.1723 4.99724 8.91394 6.11948ZM6.20264 3.70153C6.02287 3.86185 5.92188 4.07929 5.92188 4.30601C5.92188 4.53274 6.02287 4.75018 6.20264 4.9105C6.38241 5.07082 6.62623 5.16089 6.88046 5.16089C7.1347 5.16089 7.37852 5.07082 7.55829 4.9105C9.17622 3.46762 11.3706 2.65702 13.6587 2.65702C15.9468 2.65702 18.1412 3.46762 19.7591 4.9105C19.9389 5.07082 20.1827 5.16089 20.437 5.16089C20.6912 5.16089 20.935 5.07082 21.1148 4.9105C21.2946 4.75018 21.3956 4.53274 21.3956 4.30601C21.3956 4.07929 21.2946 3.86185 21.1148 3.70153C19.1373 1.938 16.4553 0.947266 13.6587 0.947266C10.8621 0.947266 8.18011 1.938 6.20264 3.70153Z" fill="#A8B2B8"/>
</svg>
