<svg width="24" height="24" viewBox="0 0 24 24" fill="none" xmlns="http://www.w3.org/2000/svg">
<path d="M13.7669 18.442L16.3674 15.8416C16.428 15.781 16.4761 15.709 16.5089 15.6298C16.5417 15.5506 16.5586 15.4657 16.5586 15.38C16.5586 15.2069 16.4898 15.0408 16.3674 14.9184C16.245 14.796 16.0789 14.7272 15.9058 14.7272C15.7327 14.7272 15.5667 14.796 15.4442 14.9184L13.9555 16.4137L13.9555 8.87881C13.9555 8.70638 13.887 8.54102 13.765 8.4191C13.6431 8.29718 13.4778 8.22869 13.3053 8.22869C13.1329 8.22869 12.9676 8.29718 12.8456 8.4191C12.7237 8.54102 12.6552 8.70638 12.6552 8.87881L12.6552 17.9805C12.6559 18.1088 12.6945 18.2341 12.7662 18.3405C12.8379 18.447 12.9396 18.5298 13.0583 18.5786C13.1767 18.6284 13.3072 18.642 13.4333 18.6177C13.5594 18.5934 13.6755 18.5322 13.7669 18.442ZM11.355 15.38L11.355 6.27833C11.3543 6.14998 11.3157 6.0247 11.244 5.91826C11.1723 5.81182 11.0706 5.729 10.9519 5.68022C10.8335 5.63044 10.703 5.61684 10.5769 5.64113C10.4508 5.66543 10.3347 5.72654 10.2433 5.81675L7.64282 8.41722C7.58188 8.47766 7.53352 8.54956 7.50051 8.62878C7.4675 8.70801 7.45051 8.79298 7.45051 8.87881C7.45051 8.96463 7.4675 9.0496 7.50051 9.12883C7.53352 9.20805 7.58188 9.27995 7.64282 9.34039C7.70325 9.40132 7.77516 9.44969 7.85438 9.48269C7.9336 9.5157 8.01858 9.53269 8.1044 9.53269C8.19022 9.53269 8.2752 9.5157 8.35442 9.48269C8.43364 9.44969 8.50555 9.40132 8.56598 9.34039L10.0548 7.84512L10.0548 15.38C10.0548 15.5524 10.1232 15.7178 10.2452 15.8397C10.3671 15.9616 10.5325 16.0301 10.7049 16.0301C10.8773 16.0301 11.0427 15.9616 11.1646 15.8397C11.2865 15.7178 11.355 15.5524 11.355 15.38Z" fill="#89939F"/>
</svg>
