<svg width="24" height="24" viewBox="0 0 24 24" fill="none" xmlns="http://www.w3.org/2000/svg">
<path d="M12 1.48047C9.95963 1.48435 7.96441 2.08149 6.25738 3.19916C4.55035 4.31683 3.20519 5.90679 2.38573 7.77538C1.56627 9.64397 1.30789 11.7105 1.64205 13.7234C1.97622 15.7362 2.88851 17.6084 4.26781 19.112C5.25293 20.1798 6.44854 21.032 7.77932 21.6149C9.11009 22.1978 10.5472 22.4987 12 22.4987C13.4528 22.4987 14.8899 22.1978 16.2207 21.6149C17.5515 21.032 18.7471 20.1798 19.7322 19.112C21.1115 17.6084 22.0238 15.7362 22.3579 13.7234C22.6921 11.7105 22.4337 9.64397 21.6143 7.77538C20.7948 5.90679 19.4496 4.31683 17.7426 3.19916C16.0356 2.08149 14.0404 1.48435 12 1.48047ZM12 20.4164C9.82075 20.4131 7.72775 19.5646 6.16141 18.0494C6.63696 16.8918 7.44594 15.9016 8.48554 15.2047C9.52515 14.5079 10.7484 14.1358 12 14.1358C13.2516 14.1358 14.4749 14.5079 15.5145 15.2047C16.5541 15.9016 17.363 16.8918 17.8386 18.0494C16.2723 19.5646 14.1793 20.4131 12 20.4164ZM9.896 9.89645C9.896 9.48032 10.0194 9.07354 10.2506 8.72754C10.4818 8.38154 10.8104 8.11186 11.1948 7.95261C11.5793 7.79337 12.0023 7.7517 12.4105 7.83289C12.8186 7.91407 13.1935 8.11446 13.4878 8.4087C13.782 8.70295 13.9824 9.07785 14.0636 9.48598C14.1448 9.89412 14.1031 10.3172 13.9438 10.7016C13.7846 11.0861 13.5149 11.4147 13.1689 11.6459C12.8229 11.8771 12.4161 12.0005 12 12.0005C11.442 12.0005 10.9068 11.7788 10.5123 11.3842C10.1177 10.9896 9.896 10.4545 9.896 9.89645ZM19.2693 16.2084C18.3294 14.6007 16.8827 13.3502 15.156 12.6527C15.6916 12.0453 16.0407 11.2963 16.1611 10.4955C16.2816 9.6947 16.1685 8.87613 15.8353 8.13804C15.5021 7.39994 14.963 6.77366 14.2827 6.33435C13.6024 5.89504 12.8098 5.66137 12 5.66137C11.1902 5.66137 10.3976 5.89504 9.71726 6.33435C9.03696 6.77366 8.49787 7.39994 8.16468 8.13804C7.83149 8.87613 7.71835 9.6947 7.83885 10.4955C7.95935 11.2963 8.30836 12.0453 8.84401 12.6527C7.11725 13.3502 5.67062 14.6007 4.73069 16.2084C3.98161 14.9325 3.58582 13.48 3.58401 12.0005C3.58401 9.76839 4.4707 7.62775 6.049 6.04945C7.6273 4.47115 9.76794 3.58447 12 3.58447C14.2321 3.58447 16.3727 4.47115 17.951 6.04945C19.5293 7.62775 20.416 9.76839 20.416 12.0005C20.4142 13.48 20.0184 14.9325 19.2693 16.2084Z" fill="#A8B2B8"/>
</svg>
