<svg width="24" height="24" viewBox="0 0 24 24" fill="none" xmlns="http://www.w3.org/2000/svg">
<path d="M8.72727 12.5455H6.54545C6.21818 12.5455 6 12.7636 6 13.0909V17.4545C6 17.7818 6.21818 18 6.54545 18H8.72727C9.05455 18 9.27273 17.7818 9.27273 17.4545V13.0909C9.27273 12.7636 9.05455 12.5455 8.72727 12.5455ZM17.4545 10.3636H15.2727C14.9455 10.3636 14.7273 10.5818 14.7273 10.9091V17.4545C14.7273 17.7818 14.9455 18 15.2727 18H17.4545C17.7818 18 18 17.7818 18 17.4545V10.9091C18 10.5818 17.7818 10.3636 17.4545 10.3636ZM13.0909 6H10.9091C10.5818 6 10.3636 6.21818 10.3636 6.54545V17.4545C10.3636 17.7818 10.5818 18 10.9091 18H13.0909C13.4182 18 13.6364 17.7818 13.6364 17.4545V6.54545C13.6364 6.21818 13.4182 6 13.0909 6Z" fill="#89939F"/>
</svg>
