<svg width="24" height="24" viewBox="0 0 24 24" fill="none" xmlns="http://www.w3.org/2000/svg">
<path d="M16.8064 3.25534L2.81978 9.06776C2.2902 9.28732 1.83463 9.65403 1.50698 10.1245C1.17934 10.5949 0.993344 11.1494 0.971025 11.7222C0.948706 12.2951 1.09099 12.8623 1.38104 13.3568C1.67109 13.8513 2.09676 14.2524 2.60765 14.5125L7.12606 16.853L9.4383 21.3997C9.69656 21.9155 10.098 22.3459 10.5947 22.6394C11.0913 22.9329 11.662 23.0769 12.2384 23.0543C12.9807 23.0263 13.6862 22.724 14.2183 22.2058C14.4973 21.9265 14.7183 21.5949 14.8689 21.23L20.7167 7.20807C20.9427 6.66024 21.0014 6.05775 20.8853 5.4766C20.7693 4.89545 20.4837 4.36169 20.0647 3.94265C19.6457 3.5236 19.1119 3.23806 18.5308 3.12203C17.9496 3.006 17.3471 3.06469 16.7993 3.29069L16.8064 3.25534ZM13.0304 20.4239C12.9571 20.6001 12.835 20.7516 12.6783 20.8606C12.5217 20.9696 12.3372 21.0315 12.1465 21.0391C11.964 21.0432 11.7838 20.9973 11.6255 20.9063C11.4672 20.8153 11.3368 20.6827 11.2485 20.5229L9.09182 16.3015L18.8004 6.59288L13.0304 20.4239ZM7.67761 14.8872L3.46325 12.7801C3.30342 12.6918 3.17082 12.5614 3.07982 12.4031C2.98883 12.2448 2.94292 12.0646 2.94706 11.882C2.9438 11.7457 2.96846 11.6101 3.01953 11.4836C3.07061 11.3572 3.14701 11.2425 3.24405 11.1467C3.33902 11.052 3.45203 10.9775 3.57639 10.9274L17.3862 5.17867L7.67761 14.8872Z" fill="#A8B2B8"/>
</svg>
