<svg width="24" height="24" viewBox="0 0 24 24" fill="none" xmlns="http://www.w3.org/2000/svg">
<path d="M9.31414 16.3417C7.35017 16.3417 5.68819 15.6613 4.32819 14.3006C2.96819 12.9398 2.28783 11.2779 2.28711 9.31462C2.28639 7.35138 2.96675 5.6894 4.32819 4.32868C5.68963 2.96796 7.35161 2.2876 9.31414 2.2876C11.2767 2.2876 12.939 2.96796 14.3012 4.32868C15.6633 5.6894 16.3433 7.35138 16.3412 9.31462C16.3412 10.1074 16.215 10.8552 15.9628 11.5579C15.7105 12.2606 15.3682 12.8822 14.9358 13.4227L20.9898 19.4768C21.188 19.675 21.2871 19.9272 21.2871 20.2335C21.2871 20.5399 21.188 20.7921 20.9898 20.9903C20.7916 21.1885 20.5394 21.2876 20.2331 21.2876C19.9267 21.2876 19.6745 21.1885 19.4763 20.9903L13.4222 14.9362C12.8817 15.3687 12.2601 15.711 11.5574 15.9633C10.8547 16.2155 10.1069 16.3417 9.31414 16.3417ZM9.31414 14.1795C10.6655 14.1795 11.8143 13.7067 12.7606 12.7611C13.7069 11.8155 14.1797 10.6667 14.179 9.31462C14.1783 7.96255 13.7055 6.81408 12.7606 5.86922C11.8158 4.92435 10.6669 4.4512 9.31414 4.44976C7.96134 4.44832 6.81288 4.92147 5.86873 5.86922C4.92459 6.81697 4.45143 7.96544 4.44927 9.31462C4.44711 10.6638 4.92026 11.8126 5.86873 12.7611C6.8172 13.7096 7.96567 14.1824 9.31414 14.1795Z" fill="#89939F"/>
</svg>
