<svg width="32" height="32" viewBox="0 0 32 32" fill="none" xmlns="http://www.w3.org/2000/svg">
<path d="M0 16C0 7.16344 7.16344 0 16 0V0C24.8366 0 32 7.16344 32 16V16C32 24.8366 24.8366 32 16 32V32C7.16344 32 0 24.8366 0 16V16Z" fill="#EDEEEF"/>
<path d="M18.3228 24.3288L21.7518 20.8998C21.8317 20.8199 21.8951 20.725 21.9384 20.6206C21.9816 20.5161 22.0039 20.4042 22.0039 20.2912C22.0039 20.0629 21.9132 19.844 21.7518 19.6825C21.5904 19.5211 21.3714 19.4304 21.1432 19.4304C20.9149 19.4304 20.6959 19.5211 20.5345 19.6825L18.5714 21.6542L18.5714 11.7187C18.5714 11.4914 18.4811 11.2733 18.3203 11.1126C18.1596 10.9518 17.9415 10.8615 17.7142 10.8615C17.4868 10.8615 17.2688 10.9518 17.108 11.1126C16.9473 11.2733 16.8569 11.4914 16.8569 11.7187L16.8569 23.7202C16.8578 23.8894 16.9087 24.0546 17.0033 24.195C17.0979 24.3353 17.2319 24.4445 17.3884 24.5088C17.5445 24.5745 17.7166 24.5924 17.8829 24.5604C18.0492 24.5283 18.2023 24.4477 18.3228 24.3288ZM15.1424 20.2912L15.1424 8.28977C15.1416 8.12053 15.0907 7.95532 14.9961 7.81498C14.9015 7.67463 14.7675 7.56542 14.611 7.50111C14.4548 7.43546 14.2828 7.41752 14.1165 7.44956C13.9502 7.4816 13.7971 7.56218 13.6766 7.68113L10.2476 11.1101C10.1672 11.1898 10.1035 11.2846 10.0599 11.3891C10.0164 11.4935 9.99402 11.6056 9.99402 11.7187C9.99402 11.8319 10.0164 11.944 10.0599 12.0484C10.1035 12.1529 10.1672 12.2477 10.2476 12.3274C10.3273 12.4077 10.4221 12.4715 10.5266 12.515C10.631 12.5586 10.7431 12.581 10.8562 12.581C10.9694 12.581 11.0814 12.5586 11.1859 12.515C11.2904 12.4715 11.3852 12.4077 11.4649 12.3274L13.428 10.3557L13.428 20.2912C13.428 20.5185 13.5183 20.7366 13.679 20.8973C13.8398 21.0581 14.0578 21.1484 14.2852 21.1484C14.5126 21.1484 14.7306 21.0581 14.8914 20.8973C15.0521 20.7366 15.1424 20.5185 15.1424 20.2912Z" fill="#40454A"/>
</svg>
