<svg width="94" height="94" viewBox="0 0 94 94" fill="none" xmlns="http://www.w3.org/2000/svg">
<circle cx="47" cy="47" r="47" fill="#F4F5F7"/>
<path d="M47.0004 17.7085C50.6267 17.7074 54.1579 18.8687 57.0756 21.0221C59.9934 23.1754 62.144 26.2073 63.2119 29.6728C64.2798 33.1383 64.2087 36.8549 63.0091 40.277C61.8094 43.6991 59.5444 46.6466 56.5464 48.6867C61.75 50.5953 66.2634 54.0176 69.5054 58.5131C72.7475 63.0086 74.5699 68.3715 74.7381 73.9115C74.7538 74.219 74.708 74.5266 74.6032 74.8161C74.4985 75.1057 74.337 75.3714 74.1282 75.5977C73.9194 75.824 73.6675 76.0063 73.3873 76.134C73.1071 76.2616 72.8042 76.332 72.4965 76.3411C72.1887 76.3501 71.8822 76.2976 71.595 76.1866C71.3078 76.0756 71.0456 75.9084 70.8239 75.6947C70.6022 75.481 70.4254 75.2252 70.3039 74.9423C70.1823 74.6594 70.1185 74.3551 70.1162 74.0472C69.9326 68.0392 67.4168 62.3387 63.1021 58.1538C58.7874 53.969 53.0128 51.6286 47.002 51.6286C40.9912 51.6286 35.2165 53.969 30.9018 58.1538C26.5871 62.3387 24.0714 68.0392 23.8878 74.0472C23.8694 74.6605 23.6081 75.2414 23.1614 75.662C22.7147 76.0827 22.1192 76.3087 21.5059 76.2903C20.8926 76.2719 20.3117 76.0106 19.891 75.5639C19.4704 75.1172 19.2444 74.5217 19.2628 73.9084C19.4316 68.3689 21.2543 63.0067 24.4963 58.5118C27.7383 54.0169 32.2513 50.5951 37.4544 48.6867C34.4565 46.6466 32.1914 43.6991 30.9918 40.277C29.7921 36.8549 29.721 33.1383 30.7889 29.6728C31.8568 26.2073 34.0075 23.1754 36.9252 21.0221C39.843 18.8687 43.3741 17.7074 47.0004 17.7085ZM34.6671 34.6668C34.6671 37.9378 35.9665 41.0749 38.2794 43.3878C40.5924 45.7008 43.7294 47.0002 47.0004 47.0002C50.2714 47.0002 53.4085 45.7008 55.7214 43.3878C58.0344 41.0749 59.3338 37.9378 59.3338 34.6668C59.3338 31.3958 58.0344 28.2588 55.7214 25.9458C53.4085 23.6329 50.2714 22.3335 47.0004 22.3335C43.7294 22.3335 40.5924 23.6329 38.2794 25.9458C35.9665 28.2588 34.6671 31.3958 34.6671 34.6668Z" fill="#A8B2B8"/>
</svg>
