<svg width="24" height="24" viewBox="0 0 24 24" fill="none" xmlns="http://www.w3.org/2000/svg">
<mask id="mask0_148_10459" style="mask-type:alpha" maskUnits="userSpaceOnUse" x="2" y="2" width="20" height="20">
<rect x="2" y="2" width="20" height="20" fill="#D6D6D6"/>
</mask>
<g mask="url(#mask0_148_10459)">
<path d="M11.9993 13.1665L14.416 15.5832C14.5688 15.7359 14.7632 15.8123 14.9993 15.8123C15.2355 15.8123 15.4299 15.7359 15.5827 15.5832C15.7355 15.4304 15.8118 15.2359 15.8118 14.9998C15.8118 14.7637 15.7355 14.5693 15.5827 14.4165L13.166 11.9998L15.5827 9.58317C15.7355 9.43039 15.8118 9.23595 15.8118 8.99984C15.8118 8.76373 15.7355 8.56928 15.5827 8.4165C15.4299 8.26373 15.2355 8.18734 14.9993 8.18734C14.7632 8.18734 14.5688 8.26373 14.416 8.4165L11.9993 10.8332L9.58268 8.4165C9.4299 8.26373 9.23546 8.18734 8.99935 8.18734C8.76324 8.18734 8.56879 8.26373 8.41602 8.4165C8.26324 8.56928 8.18685 8.76373 8.18685 8.99984C8.18685 9.23595 8.26324 9.43039 8.41602 9.58317L10.8327 11.9998L8.41602 14.4165C8.26324 14.5693 8.18685 14.7637 8.18685 14.9998C8.18685 15.2359 8.26324 15.4304 8.41602 15.5832C8.56879 15.7359 8.76324 15.8123 8.99935 15.8123C9.23546 15.8123 9.4299 15.7359 9.58268 15.5832L11.9993 13.1665ZM11.9993 20.3332C10.8466 20.3332 9.76324 20.1144 8.74935 19.6769C7.73546 19.2394 6.85352 18.6457 6.10352 17.8957C5.35352 17.1457 4.75977 16.2637 4.32227 15.2498C3.88477 14.2359 3.66602 13.1526 3.66602 11.9998C3.66602 10.8471 3.88477 9.76373 4.32227 8.74984C4.75977 7.73595 5.35352 6.854 6.10352 6.104C6.85352 5.354 7.73546 4.76025 8.74935 4.32275C9.76324 3.88525 10.8466 3.6665 11.9993 3.6665C13.1521 3.6665 14.2355 3.88525 15.2493 4.32275C16.2632 4.76025 17.1452 5.354 17.8952 6.104C18.6452 6.854 19.2389 7.73595 19.6764 8.74984C20.1139 9.76373 20.3327 10.8471 20.3327 11.9998C20.3327 13.1526 20.1139 14.2359 19.6764 15.2498C19.2389 16.2637 18.6452 17.1457 17.8952 17.8957C17.1452 18.6457 16.2632 19.2394 15.2493 19.6769C14.2355 20.1144 13.1521 20.3332 11.9993 20.3332Z" fill="#A8B2B8"/>
</g>
</svg>
