<svg width="40" height="40" viewBox="0 0 40 40" fill="none" xmlns="http://www.w3.org/2000/svg">
<path d="M9.9974 6.66634H8.33073C7.41025 6.66634 6.66406 5.92015 6.66406 4.99967C6.66406 4.0792 7.41025 3.33301 8.33073 3.33301H31.6641C32.5845 3.33301 33.3307 4.0792 33.3307 4.99967C33.3307 5.92015 32.5845 6.66634 31.6641 6.66634H29.9974V9.99967C29.9974 12.6913 28.6374 14.858 26.9241 16.628C25.7524 17.838 24.3274 18.953 22.8824 19.9997C24.3274 21.0463 25.7524 22.1613 26.9241 23.3713C28.6374 25.1413 29.9974 27.308 29.9974 29.9997V33.333H31.6641C32.5845 33.333 33.3307 34.0792 33.3307 34.9997C33.3307 35.9202 32.5845 36.6663 31.6641 36.6663H8.33073C7.41025 36.6663 6.66406 35.9202 6.66406 34.9997C6.66406 34.0792 7.41025 33.333 8.33073 33.333H9.9974V29.9997C9.9974 27.308 11.3574 25.1413 13.0707 23.3713C14.2424 22.1613 15.6674 21.0463 17.1124 19.9997C15.6674 18.953 14.2424 17.838 13.0707 16.628C11.3574 14.858 9.9974 12.6913 9.9974 9.99967V6.66634ZM13.3307 6.66634V9.99967C13.3307 11.1413 13.7641 12.2247 14.6157 13.333H25.3791C26.2291 12.2247 26.6641 11.1413 26.6641 9.99967V6.66634H13.3307ZM19.9974 22.0363C18.2557 23.2663 16.6774 24.438 15.4657 25.6897C15.1645 25.9992 14.8808 26.3253 14.6157 26.6663H25.3791C25.114 26.3253 24.8303 25.9992 24.5291 25.6897C23.3174 24.438 21.7391 23.2663 19.9974 22.0363Z" fill="#717D89"/>
</svg>
