<svg width="24" height="24" viewBox="0 0 24 24" fill="none" xmlns="http://www.w3.org/2000/svg">
<path d="M14.1982 16.0996C14.1012 16.1037 14.0108 16.081 13.9287 16.0332L13.8496 15.9775L13.7813 15.9092C13.7218 15.8382 13.6865 15.7558 13.6865 15.6641C13.6867 15.5421 13.749 15.4378 13.8477 15.3525L16.5068 13.0566L9.44434 13.0566C8.47106 13.0566 7.63539 12.7586 6.94336 12.1611C6.25097 11.5632 5.90039 10.8353 5.90039 9.98242L5.90039 8.33008C5.90049 8.20614 5.94964 8.09998 6.04395 8.01855C6.13749 7.9378 6.25303 7.90039 6.38281 7.90039C6.51258 7.90041 6.62815 7.9378 6.72168 8.01855C6.81595 8.09998 6.86513 8.20617 6.86524 8.33008L6.86523 9.98242C6.86523 10.5857 7.11293 11.1037 7.61816 11.54C8.12389 11.9767 8.73098 12.1962 9.44434 12.1963L16.5088 12.1963L13.8447 9.89648C13.7517 9.81669 13.6967 9.71552 13.6924 9.59668L13.7002 9.50586C13.7196 9.41838 13.7723 9.34147 13.8477 9.27637L13.8496 9.27539C13.9492 9.19255 14.0613 9.14761 14.1836 9.14648L14.1836 9.14551L14.1846 9.14648C14.3085 9.14523 14.4213 9.19073 14.5205 9.27637L17.8799 12.1768C18.0217 12.2992 18.0995 12.4503 18.0996 12.626C18.0996 12.8019 18.0213 12.9527 17.8789 13.0752L14.5205 15.9766C14.4305 16.0542 14.3211 16.0943 14.1982 16.0996Z" fill="#89939F" stroke="#89939F" stroke-width="0.2"/>
</svg>
