<svg width="24" height="24" viewBox="0 0 24 24" fill="none" xmlns="http://www.w3.org/2000/svg">
<path d="M11.6026 4.25671L10.8167 3.78576C10.7223 3.72921 10.6006 3.78552 10.5827 3.89405L10.433 4.79788C10.1351 6.58202 8.91628 8.23984 7.57193 9.40484C4.94016 11.6865 4.3639 14.1662 5.17878 16.2131C5.95856 18.1719 7.93765 19.5132 9.94638 19.737L10.0632 19.7499C10.1461 19.7591 10.19 19.6395 10.1247 19.5877C9.14245 18.8072 8.54613 17.3392 8.78138 16.2178C9.03559 15.0123 9.90271 13.8831 11.5683 12.8413L12.3242 12.3697C12.367 12.343 12.4235 12.3633 12.4395 12.4112L12.7216 13.257C12.9064 13.8122 13.2261 14.2582 13.5513 14.7113C13.7073 14.9296 13.8656 15.1503 14.0106 15.385C14.512 16.1999 14.6446 17.106 14.321 18.0051C14.0792 18.6755 13.7088 19.2283 13.2138 19.602C13.1451 19.6538 13.1902 19.7856 13.2757 19.7761L13.627 19.737C15.5125 19.5272 16.8966 18.8823 17.7957 17.8039C18.687 16.7348 18.9997 15.3585 18.9997 13.8933C18.9997 12.5287 18.439 11.1219 17.7777 9.95147C17.0206 8.61229 16.0379 7.49487 14.9635 6.41529C14.926 6.37758 14.8625 6.38795 14.8403 6.43632C14.7075 6.7258 14.6799 6.8995 14.4006 7.35681C14.3671 7.41157 14.2853 7.40355 14.2613 7.34407C13.7385 6.05242 12.8049 4.96688 11.6026 4.25671Z" fill="#F63D55"/>
</svg>
