<svg width="29" height="29" viewBox="0 0 29 29" fill="none" xmlns="http://www.w3.org/2000/svg">
<path fill-rule="evenodd" clip-rule="evenodd" d="M3.24023 7.95466C3.24023 6.48228 4.43443 5.28809 5.90681 5.28809H9.71602C11.1884 5.28809 12.3826 6.48228 12.3826 7.95466V8.71596C12.3826 10.1897 11.1884 11.3825 9.71602 11.3825H5.90681C5.19959 11.3825 4.52134 11.1016 4.02126 10.6015C3.52118 10.1014 3.24023 9.42318 3.24023 8.71596V7.95466ZM5.90681 7.57469C5.85691 7.57469 5.8075 7.58452 5.7614 7.60362C5.7153 7.62271 5.67342 7.6507 5.63813 7.68599C5.60285 7.72127 5.57486 7.76316 5.55577 7.80926C5.53667 7.85536 5.52684 7.90477 5.52684 7.95466V8.71596C5.52666 8.76598 5.53636 8.81553 5.55538 8.86179C5.57439 8.90804 5.60235 8.95009 5.63765 8.98552C5.67295 9.02095 5.7149 9.04906 5.76109 9.06824C5.80728 9.08742 5.8568 9.09729 5.90681 9.09729H9.71602C9.76592 9.09729 9.81533 9.08746 9.86143 9.06837C9.90753 9.04927 9.94941 9.02128 9.9847 8.986C10.02 8.95072 10.048 8.90883 10.0671 8.86273C10.0862 8.81663 10.096 8.76722 10.096 8.71732V7.95466C10.096 7.90477 10.0862 7.85536 10.0671 7.80926C10.048 7.76316 10.02 7.72127 9.9847 7.68599C9.94941 7.6507 9.90753 7.62271 9.86143 7.60362C9.81533 7.58452 9.76592 7.57469 9.71602 7.57469H5.90681ZM14.2865 8.33599C14.2865 7.70497 14.7981 7.19337 15.4291 7.19337H23.8102C24.1133 7.19337 24.4039 7.31375 24.6182 7.52803C24.8325 7.74232 24.9528 8.03295 24.9528 8.33599C24.9528 8.63904 24.8325 8.92967 24.6182 9.14395C24.4039 9.35823 24.1133 9.47862 23.8102 9.47862H15.4291C15.279 9.47898 15.1302 9.44967 14.9915 9.39237C14.8527 9.33507 14.7266 9.25092 14.6204 9.14475C14.5142 9.03857 14.4301 8.91247 14.3728 8.77368C14.3155 8.63489 14.2862 8.48614 14.2865 8.33599ZM3.6202 15.1917C3.6202 14.5607 4.13317 14.0491 4.76419 14.0491H19.2397C19.3898 14.0491 19.5383 14.0787 19.677 14.1361C19.8156 14.1935 19.9416 14.2777 20.0477 14.3838C20.1538 14.4899 20.2379 14.6159 20.2954 14.7545C20.3528 14.8931 20.3823 15.0417 20.3823 15.1917C20.3823 15.3418 20.3528 15.4904 20.2954 15.629C20.2379 15.7676 20.1538 15.8936 20.0477 15.9997C19.9416 16.1058 19.8156 16.19 19.677 16.2474C19.5383 16.3048 19.3898 16.3344 19.2397 16.3344H4.76419C4.61404 16.3347 4.46529 16.3054 4.3265 16.2481C4.18771 16.1908 4.0616 16.1067 3.95543 16.0005C3.84926 15.8943 3.76511 15.7682 3.70781 15.6294C3.65051 15.4906 3.61985 15.3419 3.6202 15.1917ZM3.6202 22.0475C3.6202 21.4178 4.13317 20.9062 4.76419 20.9062H23.0489C23.199 20.9062 23.3475 20.9358 23.4862 20.9932C23.6248 21.0506 23.7508 21.1348 23.8569 21.2409C23.963 21.347 24.0471 21.473 24.1046 21.6116C24.162 21.7502 24.1915 21.8988 24.1915 22.0489C24.1915 22.1989 24.162 22.3475 24.1046 22.4861C24.0471 22.6248 23.963 22.7507 23.8569 22.8568C23.7508 22.9629 23.6248 23.0471 23.4862 23.1045C23.3475 23.1619 23.199 23.1915 23.0489 23.1915H4.76419C4.61404 23.1918 4.46529 23.1625 4.3265 23.1052C4.18771 23.0479 4.0616 22.9638 3.95543 22.8576C3.84926 22.7514 3.76511 22.6253 3.70781 22.4865C3.65051 22.3478 3.6212 22.199 3.62156 22.0489" fill="#414141"/>
<path d="M26.1762 16.9508C26.3704 16.9508 26.5627 16.9125 26.7421 16.8382C26.9216 16.7639 27.0846 16.6549 27.2219 16.5176C27.3593 16.3803 27.4682 16.2172 27.5425 16.0378C27.6169 15.8584 27.6551 15.6661 27.6551 15.4718C27.6551 15.2776 27.6169 15.0853 27.5425 14.9059C27.4682 14.7265 27.3593 14.5634 27.2219 14.4261C27.0846 14.2888 26.9216 14.1798 26.7421 14.1055C26.5627 14.0312 26.3704 13.9929 26.1762 13.9929C25.784 13.9929 25.4078 14.1487 25.1304 14.4261C24.8531 14.7034 24.6973 15.0796 24.6973 15.4718C24.6973 15.8641 24.8531 16.2402 25.1304 16.5176C25.4078 16.795 25.784 16.9508 26.1762 16.9508Z" fill="#414141"/>
</svg>
