<svg width="29" height="29" viewBox="0 0 29 29" fill="none" xmlns="http://www.w3.org/2000/svg">
<path d="M23.5618 15.7213C23.374 15.5076 23.2705 15.2329 23.2705 14.9485C23.2705 14.6641 23.374 14.3894 23.5618 14.1757L25.0606 12.4895C25.2257 12.3053 25.3283 12.0734 25.3535 11.8273C25.3788 11.5812 25.3254 11.3334 25.2011 11.1195L22.8592 7.06794C22.7361 6.85426 22.5487 6.68489 22.3238 6.58396C22.0988 6.48304 21.8477 6.45571 21.6063 6.50588L19.4048 6.95084C19.1247 7.00872 18.8331 6.96207 18.585 6.81969C18.337 6.67732 18.1496 6.44906 18.0582 6.17801L17.344 4.03515C17.2654 3.80257 17.1157 3.60057 16.9161 3.45768C16.7165 3.3148 16.477 3.23826 16.2315 3.2389H11.5477C11.2924 3.22557 11.0397 3.29619 10.8282 3.43997C10.6168 3.58375 10.4582 3.79278 10.3767 4.03515L9.72101 6.17801C9.62967 6.44906 9.44229 6.67732 9.19421 6.81969C8.94613 6.96207 8.65452 7.00872 8.3744 6.95084L6.11445 6.50588C5.88559 6.47353 5.65227 6.50965 5.4439 6.60967C5.23552 6.70969 5.06141 6.86914 4.94349 7.06794L2.60157 11.1195C2.47412 11.331 2.41682 11.5774 2.43785 11.8235C2.45888 12.0695 2.55717 12.3026 2.71866 12.4895L4.20578 14.1757C4.39351 14.3894 4.49704 14.6641 4.49704 14.9485C4.49704 15.2329 4.39351 15.5076 4.20578 15.7213L2.71866 17.4075C2.55717 17.5944 2.45888 17.8275 2.43785 18.0735C2.41682 18.3196 2.47412 18.566 2.60157 18.7775L4.94349 22.8291C5.06655 23.0427 5.25393 23.2121 5.47891 23.313C5.70389 23.414 5.95499 23.4413 6.19642 23.3911L8.39782 22.9462C8.67794 22.8883 8.96955 22.9349 9.21763 23.0773C9.4657 23.2197 9.65309 23.4479 9.74443 23.719L10.4587 25.8618C10.5402 26.1042 10.6988 26.3132 10.9102 26.457C11.1216 26.6008 11.3743 26.6714 11.6297 26.6581H16.3135C16.559 26.6587 16.7985 26.5822 16.9981 26.4393C17.1977 26.2964 17.3474 26.0944 17.4259 25.8618L18.1402 23.719C18.2315 23.4479 18.4189 23.2197 18.667 23.0773C18.9151 22.9349 19.2067 22.8883 19.4868 22.9462L21.6882 23.3911C21.9296 23.4413 22.1807 23.414 22.4057 23.313C22.6307 23.2121 22.8181 23.0427 22.9411 22.8291L25.2831 18.7775C25.4074 18.5636 25.4608 18.3158 25.4355 18.0697C25.4103 17.8236 25.3077 17.5917 25.1426 17.4075L23.5618 15.7213ZM21.817 17.2904L22.7538 18.3443L21.255 20.9438L19.8732 20.6628C19.0299 20.4904 18.1526 20.6336 17.4079 21.0654C16.6632 21.4971 16.1029 22.1872 15.8334 23.0047L15.3885 24.3162H12.3908L11.9692 22.9813C11.6998 22.1638 11.1395 21.4737 10.3948 21.0419C9.65008 20.6102 8.77279 20.467 7.92944 20.6394L6.5477 20.9204L5.02546 18.3326L5.96222 17.2787C6.53828 16.6347 6.85676 15.8009 6.85676 14.9368C6.85676 14.0727 6.53828 13.2389 5.96222 12.5949L5.02546 11.541L6.52429 8.96489L7.90602 9.24592C8.74937 9.41831 9.62666 9.27506 10.3714 8.84335C11.1161 8.41163 11.6763 7.72152 11.9458 6.904L12.3908 5.58082H15.3885L15.8334 6.91571C16.1029 7.73323 16.6632 8.42334 17.4079 8.85505C18.1526 9.28677 19.0299 9.43002 19.8732 9.25763L21.255 8.9766L22.7538 11.5761L21.817 12.63C21.2474 13.2726 20.9329 14.1015 20.9329 14.9602C20.9329 15.8189 21.2474 16.6478 21.817 17.2904ZM13.8896 10.2647C12.9632 10.2647 12.0577 10.5394 11.2874 11.054C10.5172 11.5687 9.91683 12.3002 9.56232 13.1561C9.20781 14.0119 9.11506 14.9537 9.29578 15.8623C9.47651 16.7708 9.9226 17.6054 10.5776 18.2605C11.2327 18.9155 12.0673 19.3616 12.9759 19.5423C13.8844 19.7231 14.8262 19.6303 15.6821 19.2758C16.5379 18.9213 17.2694 18.321 17.7841 17.5507C18.2988 16.7804 18.5735 15.8749 18.5735 14.9485C18.5735 13.7063 18.08 12.5149 17.2016 11.6365C16.3232 10.7581 15.1319 10.2647 13.8896 10.2647ZM13.8896 17.2904C13.4264 17.2904 12.9736 17.1531 12.5885 16.8957C12.2034 16.6384 11.9032 16.2726 11.726 15.8447C11.5487 15.4168 11.5023 14.9459 11.5927 14.4916C11.6831 14.0373 11.9061 13.62 12.2336 13.2925C12.5612 12.965 12.9785 12.7419 13.4327 12.6516C13.887 12.5612 14.3579 12.6076 14.7858 12.7848C15.2138 12.9621 15.5795 13.2623 15.8369 13.6474C16.0942 14.0325 16.2315 14.4853 16.2315 14.9485C16.2315 15.5696 15.9848 16.1653 15.5456 16.6045C15.1064 17.0437 14.5107 17.2904 13.8896 17.2904Z" fill="#414141"/>
</svg>
