<svg width="21" height="24" viewBox="0 0 21 24" fill="none" xmlns="http://www.w3.org/2000/svg">
<path d="M17.7334 9.63063V8.385C17.7251 5.47542 17.6347 3.93292 16.6611 2.93953C15.5878 1.84546 13.8605 1.84546 10.407 1.84546H8.4524C4.99786 1.84546 3.27163 1.84546 2.19832 2.93953C1.125 4.03361 1.125 5.79617 1.125 9.31922V14.0941C1.125 17.6172 1.125 19.3787 2.19832 20.4738C3.15122 21.4454 4.61898 21.5534 7.35314 21.5658" stroke="#414141" stroke-width="1.93208" stroke-linecap="round" stroke-linejoin="round"/>
<path d="M17.3963 20.2064L19.8097 22.6053M5.27734 7.03491H13.5815M5.27734 11.187H8.39141M18.7716 16.8961C18.7716 15.6573 18.2795 14.4692 17.4035 13.5932C16.5275 12.7172 15.3394 12.225 14.1005 12.225C12.8617 12.225 11.6736 12.7172 10.7976 13.5932C9.92157 14.4692 9.42943 15.6573 9.42943 16.8961C9.42943 18.135 9.92157 19.3231 10.7976 20.1991C11.6736 21.0751 12.8617 21.5672 14.1005 21.5672C15.3394 21.5672 16.5275 21.0751 17.4035 20.1991C18.2795 19.3231 18.7716 18.135 18.7716 16.8961Z" stroke="#414141" stroke-width="1.93208" stroke-linecap="round" stroke-linejoin="round"/>
</svg>
