<svg width="14" height="14" viewBox="0 0 14 14" fill="none" xmlns="http://www.w3.org/2000/svg">
<path d="M6.96732 11C7.20065 11 7.39798 10.9194 7.55932 10.758C7.72065 10.5967 7.8011 10.3996 7.80065 10.1667C7.80021 9.93382 7.71976 9.73649 7.55932 9.57471C7.39887 9.41293 7.20154 9.33249 6.96732 9.33338C6.7331 9.33427 6.53598 9.41493 6.37598 9.57538C6.21598 9.73582 6.13532 9.93293 6.13398 10.1667C6.13265 10.4005 6.21332 10.5978 6.37598 10.7587C6.53865 10.9196 6.73576 11 6.96732 11ZM6.36732 8.43338H7.60065C7.60065 8.06671 7.64243 7.77782 7.72598 7.56671C7.80954 7.3556 8.04554 7.06671 8.43398 6.70004C8.72287 6.41115 8.95065 6.13604 9.11732 5.87471C9.28398 5.61338 9.36732 5.2996 9.36732 4.93338C9.36732 4.31115 9.13954 3.83338 8.68398 3.50004C8.22843 3.16671 7.68954 3.00004 7.06732 3.00004C6.43398 3.00004 5.92021 3.16671 5.52599 3.50004C5.13176 3.83338 4.85665 4.23338 4.70065 4.70004L5.80065 5.13338C5.85621 4.93338 5.98132 4.71671 6.17598 4.48338C6.37065 4.25004 6.66776 4.13338 7.06732 4.13338C7.42287 4.13338 7.68954 4.23071 7.86732 4.42538C8.0451 4.62004 8.13398 4.83382 8.13398 5.06671C8.13398 5.28893 8.06732 5.49738 7.93398 5.69204C7.80065 5.88671 7.63398 6.06715 7.43398 6.23338C6.9451 6.66671 6.6451 6.99449 6.53398 7.21671C6.42287 7.43893 6.36732 7.84449 6.36732 8.43338ZM7.00065 13.6667C6.07843 13.6667 5.21176 13.4918 4.40065 13.142C3.58954 12.7923 2.88399 12.3172 2.28399 11.7167C1.68399 11.1163 1.2091 10.4107 0.859319 9.60004C0.509541 8.78938 0.33443 7.92271 0.333985 7.00004C0.333541 6.07738 0.508652 5.21071 0.859319 4.40004C1.20999 3.58938 1.68487 2.88382 2.28399 2.28338C2.8831 1.68293 3.58865 1.20804 4.40065 0.858711C5.21265 0.509377 6.07932 0.334266 7.00065 0.333377C7.92198 0.332489 8.78865 0.5076 9.60065 0.858711C10.4127 1.20982 11.1182 1.68471 11.7173 2.28338C12.3164 2.88204 12.7915 3.5876 13.1427 4.40004C13.4938 5.21249 13.6687 6.07915 13.6673 7.00004C13.666 7.92093 13.4909 8.7876 13.142 9.60004C12.7931 10.4125 12.3182 11.118 11.7173 11.7167C11.1164 12.3154 10.4109 12.7905 9.60065 13.142C8.79043 13.4936 7.92376 13.6685 7.00065 13.6667ZM7.00065 12.3334C8.48954 12.3334 9.75065 11.8167 10.784 10.7834C11.8173 9.75004 12.334 8.48893 12.334 7.00004C12.334 5.51115 11.8173 4.25004 10.784 3.21671C9.75065 2.18338 8.48954 1.66671 7.00065 1.66671C5.51176 1.66671 4.25065 2.18338 3.21732 3.21671C2.18399 4.25004 1.66732 5.51115 1.66732 7.00004C1.66732 8.48893 2.18399 9.75004 3.21732 10.7834C4.25065 11.8167 5.51176 12.3334 7.00065 12.3334Z" fill="#40454A"/>
</svg>
